<?xml version="1.0" encoding="utf-8"?>
<!-- Generator: Adobe Illustrator 15.0.0, SVG Export Plug-In . SVG Version: 6.00 Build 0)  -->
<!DOCTYPE svg PUBLIC "-//W3C//DTD SVG 1.1//EN" "http://www.w3.org/Graphics/SVG/1.1/DTD/svg11.dtd">
<svg version="1.1" id="Warstwa_1" xmlns="http://www.w3.org/2000/svg" xmlns:xlink="http://www.w3.org/1999/xlink" x="0px" y="0px"
	 width="5506.1px" height="1260px" viewBox="0 0 5506.1 1260" enable-background="new 0 0 5506.1 1260" xml:space="preserve">
<rect x="251.4" y="1008" fill="#65CCEC" width="126" height="126"/>
<rect x="377.4" y="1008" fill="#3BC6F4" width="126" height="126"/>
<rect x="503.4" y="1008" fill="#87D3E2" width="126" height="126"/>
<rect x="629.4" y="1008" fill="#6BCAF3" width="126" height="126"/>
<rect x="755.4" y="1008" fill="#94D8EC" width="126" height="126"/>
<rect x="881.4" y="1008" fill="#4AB5E7" width="126" height="126"/>
<rect x="881.4" y="378" fill="#91D7EE" width="126" height="126"/>
<rect x="1007.4" y="378" fill="#53C9ED" width="126" height="126"/>
<rect x="125.4" y="378" fill="#30C1FB" width="126" height="126"/>
<rect x="251.4" y="378" fill="#00ABDF" width="126" height="126"/>
<rect x="629.4" y="252" fill="#47C7EF" width="126" height="126"/>
<rect x="629.4" y="630" fill="#94D8EC" width="126" height="126"/>
<rect x="755.4" y="504" fill="#76CFE4" width="126" height="126"/>
<rect x="881.4" y="252" fill="#53C9ED" width="126" height="126"/>
<rect x="1007.4" y="252" fill="#30C1FB" width="126" height="126"/>
<rect x="125.4" y="252" fill="#84D5F7" width="126" height="126"/>
<rect x="251.4" y="252" fill="#6CC4EF" width="126" height="126"/>
<rect x="629.4" y="882" fill="#50C8F4" width="126" height="126"/>
<rect x="503.4" y="252" fill="#00ABDF" width="126" height="126"/>
<rect x="755.4" y="378" fill="#53C8EA" width="126" height="126"/>
<rect x="881.4" y="126" fill="#C5E8F3" width="126" height="126"/>
<rect x="251.4" y="126" fill="#A8DFF3" width="126" height="126"/>
<rect x="377.4" y="126" fill="#81D2E8" width="126" height="126"/>
<rect x="503.4" y="126" fill="#53C8EA" width="126" height="126"/>
<rect x="629.4" y="126" fill="#33C6F4" width="126" height="126"/>
<rect x="755.4" y="126" fill="#6DCDE9" width="126" height="126"/>
<rect x="881.4" y="504" fill="#03B3DE" width="126" height="126"/>
<rect x="1007.4" y="504" fill="#46C7F2" width="126" height="126"/>
<rect x="125.4" y="504" fill="#42B5E8" width="126" height="126"/>
<rect x="251.4" y="504" fill="#84D3E6" width="126" height="126"/>
<rect x="755.4" y="756" fill="#68CCE2" width="126" height="126"/>
<rect x="377.4" y="882" fill="#7AD1ED" width="126" height="126"/>
<rect x="629.4" y="504" fill="#53C9ED" width="126" height="126"/>
<rect x="881.4" y="630" fill="#6DCDE9" width="126" height="126"/>
<rect x="1007.4" y="630" fill="#30C1FB" width="126" height="126"/>
<rect x="125.4" y="630" fill="#76CFE4" width="126" height="126"/>
<rect x="251.4" y="630" fill="#97D8E8" width="126" height="126"/>
<rect x="377.4" y="504" fill="#53CAF5" width="126" height="126"/>
<rect x="377.4" y="630" fill="#6ECDE0" width="126" height="126"/>
<rect x="881.4" y="756" fill="#7FD2EA" width="126" height="126"/>
<rect x="1007.4" y="756" fill="#53CAF5" width="126" height="126"/>
<rect x="125.4" y="756" fill="#53CAF5" width="126" height="126"/>
<rect x="251.4" y="756" fill="#46C7F2" width="126" height="126"/>
<rect x="503.4" y="756" fill="#30C1FB" width="126" height="126"/>
<rect x="755.4" y="630" fill="#45BEEE" width="126" height="126"/>
<rect x="881.4" y="882" fill="#6CCFF5" width="126" height="126"/>
<rect x="1007.4" y="882" fill="#53C8EA" width="126" height="126"/>
<rect x="125.4" y="882" fill="#7AD1ED" width="126" height="126"/>
<rect x="251.4" y="882" fill="#45BEEE" width="126" height="126"/>
<rect x="503.4" y="882" fill="#4AB5E7" width="126" height="126"/>
<rect x="377.4" y="252" fill="#71CEE6" width="126" height="126"/>
<rect x="503.4" y="378" fill="#84D5F7" width="126" height="126"/>
<g>
	<path fill="#3D3D3D" d="M3388.3,968.7c-1,0.6-2,0.9-2.9,0.9c-2.8,0-4.1-1.4-4.1-4.1c0-1.2,0.2-2.1,0.6-2.7c2.2-2.2,4.2-4.2,6.2-6.2
		c2-2,3.8-4,5.6-6.2c-0.6-6.1-0.9-12.4-0.9-18.8c0-12,1.1-24,3.4-35.9c2.3-12,5.2-23.3,8.7-33.9c0.6-2,1.4-4.4,2.5-7.4
		c1.1-2.9,2.3-6.1,3.8-9.6c1.5-3.4,3.1-7,5-10.6c1.9-3.6,3.9-7.1,6-10.5c3.5-5.7,7.4-10.5,11.7-14.3c4.3-3.8,8.8-5.8,13.5-5.8
		c5.1,0,8.5,2.2,10.3,6.7c1.8,4.5,2.7,9.7,2.7,15.6c0,11.2-1.5,22.4-4.6,33.6c-3.1,11.2-7.4,22.4-12.9,33.6
		c-5.3,10.8-11.3,21.2-18.2,31.1c-6.8,9.9-14,19.3-21.4,28.2c1.6,6.5,3.8,13,6.7,19.6c2.9,6.6,6.6,12.6,11.1,18.1
		c4.5,5.5,10.1,10,16.8,13.6c6.7,3.6,14.5,5.7,23.6,6.3c10.6,0.8,18.9-1.2,24.9-6c6-4.7,9-11.6,8.9-20.6c0-7.3-1.5-15-4.5-23.3
		c-0.2-0.4-0.3-0.9-0.3-1.5c0-1.4,0.4-2.4,1.3-3.1c0.9-0.7,1.8-1,2.8-1c1.6,0,2.9,0.7,4.1,2c1.6,3.1,3.6,6.1,5.9,9
		c2.4,2.8,5,5.3,8,7.5c3,2.2,6,3.9,9.1,5.1c3.1,1.3,6.4,1.9,9.7,1.9c7.9,0,14.4-1.4,19.6-4.2c5.2-2.8,10.6-7.3,16.3-13.6
		c1-1,2.1-1.7,3.4-2.1c1.3-0.4,2.4-0.1,3.4,0.9c1,1,1.5,2.2,1.5,3.5c0,1.4-0.5,2.6-1.5,3.5c-4.9,5.7-11,10.6-18.2,14.6
		c-7.3,4-14,6.3-20.3,6.7c-7.1,0.4-13.3-0.5-18.6-2.6c-5.3-2.1-9.7-4.9-13.3-8.2c0.2,1,0.3,1.9,0.3,2.7c0,0.8,0,1.6,0,2.4
		c0,4.5-0.8,9-2.5,13.4c-1.7,4.4-4.2,8.4-7.8,11.9s-8,6.3-13.5,8.3c-5.5,2-12.1,2.7-19.7,2.1c-9.8-0.8-18.4-3-25.8-6.7
		c-7.4-3.7-13.8-8.4-19.3-14.1c-4.9-5.1-9-10.9-12.3-17.3c-3.3-6.5-5.8-13.2-7.6-20.3c-1.4,1.4-2.6,2.7-3.8,4
		C3390.6,966.3,3389.4,967.5,3388.3,968.7z M3401.4,931c0,1.6,0,3.2,0,4.9c0,1.7,0.1,3.4,0.3,5.2c7.4-9.2,13.9-18.4,19.5-27.6
		s10.6-18.9,15.1-29.3c2.1-4.9,4.1-9.9,5.8-15c1.8-5.1,3.5-10.5,5.3-16.2c1.4-4.3,2.3-8.9,2.9-13.7c0.6-4.8,0.9-9.2,0.8-13.3
		c0-4-0.3-7.3-0.9-9.9c-0.6-2.5-1.5-3.7-2.7-3.5c-3.3,0.4-6.6,2-9.7,4.9c-3.1,2.9-6.3,6.6-9.4,11.4c-3.7,5.7-7.2,12.5-10.5,20.5
		c-3.3,8-6.2,16.5-8.6,25.6c-2.4,9.1-4.4,18.5-5.8,28.1C3402.1,912.6,3401.4,921.9,3401.4,931z"/>
	<path fill="#3D3D3D" d="M3573.8,968.5c-1.2,1-2.4,1.3-3.5,1s-2.1-0.9-2.7-1.8c-0.6-0.9-0.9-1.9-0.9-3.1c0-1.2,0.5-2.3,1.5-3.2
		c4.1-3.9,7.9-8,11.3-12.1c3.4-4.1,6.6-7.9,9.5-11.2c1.8-2.2,3.6-2.8,5.6-1.8c2,1,3.1,3.5,3.3,7.6c1,22.4,5.5,38.3,13.4,47.7
		c7.1,8.2,16.6,11.3,28.6,9.3c6.5-1.2,12.3-3,17.5-5.5c5.2-2.5,9.9-5.4,14.1-8.7c4.2-3.3,8-6.9,11.5-10.8c3.4-3.8,6.5-7.7,9.2-11.7
		c1.6-2.4,3.7-3.4,6.3-3.1c2.7,0.3,4.2,1.8,4.6,4.6c1.2,8.8,1.4,17.6,0.5,26.4c-0.9,8.7-2.2,17.4-3.9,26.1
		c6.7-3.2,12.8-6.6,18.4-10.2c5.6-3.6,10.7-7.4,15.4-11.4c7.2-5.9,13.7-11.9,19.2-18c5.6-6.1,10.8-11.7,15.7-16.8
		c1.2-1.2,2.4-1.8,3.5-1.8c1.2,0,2.1,0.3,2.8,1c0.7,0.7,1.1,1.6,1.3,2.8c0.2,1.2-0.2,2.4-1.2,3.5c-5.3,6.1-11.1,12.2-17.3,18.3
		c-6.3,6.1-12.9,12-20,17.7c-8.8,7.1-18.2,13.3-28.2,18.6c-2.2,1-4.2,2-6.2,3.1c-2,1.1-3.9,2.1-5.9,3.1c-0.2,1-0.4,2-0.6,3.1
		c-0.2,1.1-0.4,2.1-0.6,3.1c-2.5,10.6-5.7,20.7-9.5,30.4c-3.8,9.6-8.8,18.9-15.1,27.7c-2.3,3.3-4.8,6.5-7.5,9.6c-2.6,3-5.6,6.1-9,9
		c-3.9,3.9-7.8,6.3-11.8,7c-3.9,0.7-7.3,0.2-10-1.6c-4.7-3.1-7.4-8.8-8-17.1c-0.6-9.6,1.2-18.7,5.5-27.1c2.1-4.1,4.7-7.9,7.6-11.2
		c2.9-3.3,6.2-6.5,9.7-9.5c6.3-5.5,13-10.6,20.1-15.4c7.2-4.7,14.4-9.1,21.6-13c1.7-8.3,3-16.3,3.9-24.2c0.9-7.9,1.3-15.4,1.3-22.7
		l-1.8,1.8c-1.2,1.2-2.3,2.4-3.4,3.7c-1.1,1.3-2.4,2.5-4,3.7c-6.3,6.1-12.7,11.2-19.4,15.2c-6.7,4-14.6,6.9-23.8,8.5
		c-6.9,1.2-13.5,1.2-20-0.1c-6.5-1.3-12.3-4.7-17.4-10.4c-3.9-4.5-7.3-10.5-10.2-18.1c-2.9-7.5-4.8-17.3-5.8-29.3L3573.8,968.5z
		 M3644.6,1108.2c2.7-2,5.4-4.1,8.1-6.5c2.6-2.4,5-4.9,7.2-7.7c6.8-8.3,12.5-17.5,16.9-27.7c4.4-10.2,8-21,11-32.4
		c-4.7,2.8-9.2,5.6-13.5,8.6c-4.3,3-8.8,6.4-13.5,10.3c-5.5,4.5-10.5,8.9-15,13c-4.5,4.1-7.8,9-10,14.8c-1,2.6-1.8,5.4-2.3,8.5
		c-0.6,3.1-0.7,6.3-0.3,9.4C3634.7,1108.7,3638.5,1111.9,3644.6,1108.2z"/>
	<path fill="#3D3D3D" d="M3895.1,844.5c-2.8,1-4.8,0.6-6-1.3c-1.3-1.9-0.9-3.8,1-5.7c2.5-1.8,5.6-3.7,9.3-5.8
		c3.6-2.1,7.6-4.5,11.9-7.2c4.5-2.8,9.1-5.7,13.8-8.7c4.7-3.1,9.3-5.6,13.8-7.5c2,0.4,3.3,1.6,4.1,3.5c1,7.7,2,15.6,2.9,23.7
		c0.9,8.1,1.7,16,2.3,23.7c1,11.6,1.6,23.1,1.9,34.6c0.2,11.5-0.1,23.4-1.1,35.8c-0.4,5.9-1.2,12.2-2.6,18.9
		c-1.4,6.7-3.3,13.2-5.7,19.6c-2.4,6.4-5.4,12.4-8.8,18c-3.4,5.6-7.5,10.4-12.3,14.3c-4.8,3.9-10.2,6.8-16.3,8.6
		c-6.1,1.8-13,1.9-20.6,0.4c-4.5-1-8.6-2.4-12.4-4.4c-3.7-2-7.5-4-11.2-6.2c-2.4-2.2-2.8-4.3-1.2-6.3c1.6-2.1,3.7-2.3,6.5-0.8
		c3.1,2,6.3,3.8,9.4,5.4c3.1,1.7,6.6,2.8,10.3,3.4c10,1.7,18.4,0.6,25-3.5c6.7-4,12.1-9.8,16.4-17.3c2.1-3.7,4-7.6,5.6-11.6
		c1.6-4,2.9-8.2,4.1-12.5c2.1-7.5,3.6-15.2,4.5-23.3c0.9-8,1.4-16.2,1.6-24.3c0.2-8.1,0.1-16.2-0.4-24.3c-0.4-8-0.9-15.9-1.5-23.6
		c-0.6-6.9-1.3-13.7-2-20.5c-0.7-6.8-1.6-13.6-2.6-20.5c-4.5,2.8-8.9,5.6-13.1,8.4c-4.2,2.9-8.9,6-14,9.3c-2,1.2-4,2.4-6,3.7
		C3899.6,841.8,3897.4,843.1,3895.1,844.5z M4054.4,840.5c2.5-1.2,4.5-0.9,5.9,0.9c1.4,1.8,1.3,3.7-0.3,5.9
		c-15.5,12.4-31.2,24.5-47.2,36.4c-16,11.8-31.9,23.6-47.8,35.5c3.6,10.2,8.1,20.1,13.6,29.7c5.5,9.6,12,18.3,19.4,26
		c7.4,7.7,15.6,14.4,24.8,20c9.1,5.6,19.3,9.4,30.5,11.5c6.1,1.2,12.2,1.7,18.3,1.7c6.1,0,12.2-0.8,18.3-2.4
		c6.3-1.8,12.2-4.3,17.8-7.4c5.6-3.2,10.9-6.8,15.9-10.8c5-4,9.8-8.3,14.4-12.8c4.6-4.5,9.2-9.2,13.7-13.9c1.2-1.2,2.4-1.8,3.5-1.8
		c1.2,0,2.1,0.4,2.8,1.2c0.7,0.8,1.1,1.8,1.3,2.9c0.2,1.2-0.2,2.4-1.2,3.5c-9.8,10.4-19.7,19.7-29.8,27.8
		c-10.1,8.1-21.9,14.6-35.4,19.5c-6.3,2.2-13,3.3-20.3,3.3c-7.3,0-14.1-0.7-20.6-2c-12.2-2.5-23.3-6.8-33.5-12.9
		c-10.1-6.1-19.2-13.4-27.2-22c-8-8.6-14.9-18.2-20.8-28.7c-5.9-10.5-10.8-21.4-14.5-32.8c-0.4-2,0.1-3.6,1.5-5
		c16.3-12.4,32.5-24.5,48.8-36.4C4022.5,865.6,4038.5,853.3,4054.4,840.5z"/>
	<path fill="#3D3D3D" d="M4156.6,967.5c-1,0.8-2.1,1.2-3.2,1.2c-1,0-1.9-0.4-2.7-1.3c-0.8-0.9-1.2-1.9-1.2-3.1
		c0-0.8,0.5-1.9,1.5-3.4c1-1.5,2.2-3,3.7-4.6c1.5-1.6,2.9-3.1,4.4-4.6s2.7-2.8,3.7-4c-0.8-3.9-1.3-8-1.7-12.2
		c-0.3-4.2-0.5-8.4-0.5-12.5c0-13,1.3-26.6,4.2-40.8c2.8-14.2,6.7-27.4,11.8-39.3c5.1-12,11.4-21.9,18.9-29.7
		c7.5-7.8,15.2-11.7,23.1-11.7c5.1,0,8.6,2.2,10.5,6.6c1.9,4.4,2.8,9.6,2.8,15.5c0,10.6-1.4,21.2-4.3,31.8
		c-2.9,10.6-6.9,21-11.8,31.1c-5,10.1-10.7,19.9-17.1,29.4c-6.5,9.4-13.1,18.3-20,26.6c-1,1.4-2.1,2.7-3.2,3.8
		c-1.2,1.2-2.3,2.5-3.2,3.8c3.8,18.4,10.8,31.6,21,39.6c10.2,7.9,22.2,11.9,36,11.8c6.9,0,13.4-1.2,19.7-3.6
		c6.3-2.4,12.2-5.5,17.8-9.5c5.6-3.9,10.8-8.3,15.7-13.1c4.9-4.8,9.6-9.8,14.1-14.9c1.2-1.2,2.4-1.8,3.8-1.8c2.5,0,3.8,1.4,3.8,4.1
		c0,1.6-0.9,3.5-2.6,5.9c-1.8,2.4-3.9,4.9-6.5,7.5c-2.5,2.7-5.2,5.2-7.9,7.7c-2.7,2.5-5.1,4.5-7.1,6.1c-7.8,6.3-16.2,11.3-25,14.9
		c-8.8,3.7-18,5.5-27.4,5.5c-6.7,0-13.1-0.9-19.3-2.9c-6.2-1.9-11.9-5-17.3-9.1c-5.3-4.1-10.2-9.4-14.6-16
		c-4.4-6.6-8.2-14.6-11.4-24c-1.4,1.6-2.7,3.1-4.1,4.6C4159.7,964.4,4158.2,965.9,4156.6,967.5z M4170.7,938.3
		c11.2-13.2,20.9-26.9,29.2-41.2c8.3-14.3,14.6-29.2,18.9-45c1-3.1,2-7.3,3.1-12.5c1.1-5.2,1.6-10.3,1.6-15.2c0-3.1-0.4-6.3-1.2-9.6
		c-0.8-3.2-2.6-4.9-5.3-4.8c-2.8,0-6.8,2.4-12.1,7.1c-5.3,4.7-10.6,11.7-15.8,21c-5.3,9.2-9.9,20.6-13.7,34.2
		c-3.9,13.6-5.8,29.1-5.8,46.5c0,3.3,0.1,6.6,0.3,9.7C4170,931.7,4170.3,934.9,4170.7,938.3z"/>
	<path fill="#3D3D3D" d="M4392.2,940.3c0.4,1.8,0.2,3.1-0.6,4.1c-0.8,1-1.7,1.5-2.6,1.6c-1,0.1-2-0.2-3.1-0.9
		c-1.1-0.7-1.7-1.8-1.9-3.4c-1.6-7.3-4.6-12.8-8.9-16.6c-4.3-3.8-9.6-5.9-15.9-6.3c-6.9-0.4-14.1,1.7-21.8,6.2
		c-7.6,4.5-14.8,11.3-21.4,20.4c-4.3,5.7-8,12-11.1,18.9c-3.1,6.9-4.7,14-4.7,21.2c0,7.7,2.6,13.1,7.7,16.5c5.1,3.3,11.2,4,18.3,2
		c5.5-1.6,10.8-4.1,15.9-7.4c5.1-3.4,9.9-7.1,14.4-11.2c4.5-4.1,8.7-8.5,12.6-13.1c3.9-4.6,7.6-9.1,11.2-13.4
		c1.4-1.8,3.1-2.4,5.1-1.8s3,2.3,2.8,5c-0.4,2.2-0.8,4.8-1.3,8c-0.5,3.1-0.8,6.1-1,8.8c-0.4,4.7-0.1,9,0.9,12.8
		c1,3.8,2.6,6.9,4.7,9.1c2.2,2.3,5,3.6,8.4,4c3.4,0.4,7.6-0.6,12.5-3c4.9-2.4,10-5.6,15.4-9.8c5.4-4.1,10.6-8.5,15.7-13
		c3.9-3.3,7.5-6.7,10.9-10c3.3-3.3,6.4-6.4,9.1-9.2c1.2-1.2,2.4-1.8,3.5-1.8c1.2,0,2.1,0.4,2.8,1.2c0.7,0.8,1.1,1.8,1.3,2.9
		c0.2,1.2-0.2,2.4-1.2,3.5c-3.3,3.4-7,6.9-11,10.8c-4,3.8-8.3,7.6-12.8,11.4c-5.9,4.9-12,9.5-18.2,13.7c-6.3,4.2-12.5,7.5-18.8,9.9
		c-5.5,2-10.3,2.4-14.3,1.2c-4-1.2-7.4-3.3-10-6.5c-2.7-3.1-4.6-7-5.9-11.5c-1.3-4.5-1.9-9-2-13.5l0-4.7c-3.3,3.9-7,7.9-10.9,11.8
		c-3.9,3.9-8,7.6-12.2,10.9c-4.2,3.4-8.5,6.2-12.9,8.6c-4.4,2.4-8.8,3.9-13.1,4.7c-3.1,0.6-5.7,1-7.7,1.3c-2,0.3-4.3,0.3-7.1-0.1
		c-5.3-0.8-9.6-2.4-12.8-4.8c-3.2-2.4-5.6-5.4-7.1-9c-1.5-3.5-2.2-7.4-2.2-11.6c0-4.2,0.5-8.6,1.4-13.1c1.9-7.9,5.1-15.7,9.4-23.4
		c4.3-7.8,8.5-13.9,12.6-18.4c6.3-6.7,13.2-12.3,20.9-16.8c7.6-4.5,15.5-6.7,23.5-6.5c5.3,0,10,1,14,3.1c4,2,7.4,4.6,10.2,7.6
		c2.8,3,4.9,6.3,6.4,9.8C4390.8,934.1,4391.8,937.4,4392.2,940.3z"/>
	<path fill="#3D3D3D" d="M4469.4,966.3c-2.2,1.6-4.1,1.6-5.7,0c-1.7-1.6-1.9-3.5-0.8-5.9c3.9-4.5,7.7-9,11.5-13.3
		c3.7-4.3,7.6-8.6,11.7-12.7c1.6-1.6,3.2-2,5-1.3c1.8,0.7,2.8,2.2,3,4.6c0,7.1,0.5,13.9,1.4,20.5c0.9,6.6,2.6,12.9,5.2,19
		c1.6,3.9,3.5,7.7,5.8,11.3c2.3,3.6,5.4,6.9,9.3,9.8c3.3,2.5,6.9,4.3,10.8,5.1c3.8,0.9,7.3,1.3,10.5,1.3c5.1,0,9.6-1.5,13.5-4.5
		c3.9-3,7.3-6.4,10.3-10.3c3.9-5.3,7-11.4,9.4-18.1c2.3-6.8,4.2-13.1,5.5-19c0.4-2.7,0.8-5.9,1.3-9.4c0.5-3.5,1-6.7,1.6-9.4
		c0.2-1.4,0.8-2.3,1.8-2.8c1-0.5,2-0.6,2.9-0.3c1,0.3,1.9,0.8,2.7,1.6c0.8,0.8,1.2,1.9,1.2,3.2c0,3.9,0.3,8.2,0.8,12.8
		c0.5,4.6,1.4,9.3,2.5,14c1.2,4.7,2.7,9.3,4.6,13.7c1.9,4.4,4.2,8.4,7,11.9c2.8,3.5,6,6.5,9.7,8.8c3.7,2.3,8,3.7,12.7,4.1
		c3.5,0.4,7.2-0.1,10.9-1.4c3.7-1.3,7.5-3,11.2-5.2c3.5-2.2,7-4.6,10.3-7.4c3.3-2.8,6.6-5.6,9.7-8.6c3.5-3.5,6.9-7,10-10.3
		c3.1-3.3,5.8-6.4,7.9-9.2c1.2-1.2,2.3-1.8,3.4-1.8c1.1,0,2,0.4,2.8,1.2c0.8,0.8,1.2,1.8,1.3,2.9c0.1,1.2-0.3,2.4-1.3,3.5
		c-4.3,5.1-9.1,10.4-14.2,15.8c-5.2,5.4-10.6,10.4-16.3,14.9c-5.7,4.3-11.5,7.8-17.5,10.5c-6,2.7-12.1,3.8-18.4,3.4
		c-5.1-0.4-10.4-1.9-15.9-4.7c-5.5-2.7-9.8-6.3-13-10.6c-3-3.9-5.3-7.7-7-11.5c-1.7-3.7-3-7.3-4-10.6c-0.4-1.2-0.8-2.4-1.2-3.7
		c-0.4-1.3-0.8-2.6-1.2-4c-1.6,6.5-3.7,12.8-6.4,19c-2.7,6.2-6.4,11.7-11.1,16.4c-4.5,4.5-9.6,7.8-15.3,9.9
		c-5.7,2.1-11.5,2.9-17.4,2.6c-5.7-0.4-11.1-1.8-16.2-4.2c-5.1-2.4-9.6-5.9-13.6-10.4c-4.3-5.3-7.8-11.5-10.4-18.5
		c-2-5.1-3.4-10.3-4.2-15.6c-0.8-5.3-1.4-10.5-1.8-15.6c-2.7,3-5.4,6-8.1,9C4474.8,960.1,4472.1,963.2,4469.4,966.3z"/>
	<path fill="#3D3D3D" d="M4779.5,940.7c0,2.9-1.3,4.4-3.8,4.4c-1,0-1.9-0.3-2.8-1c-0.9-0.7-1.4-1.8-1.6-3.4
		c-1.6-7.5-4.7-13.1-9.5-17.1c-4.7-3.9-10.4-5.9-17.1-5.8c-4.3,0-9.5,1.5-15.6,4.3c-6.1,2.9-11.9,6.7-17.5,11.5
		c-5.6,4.8-10.3,10.6-14.2,17.3c-3.9,6.7-5.9,13.9-5.8,21.5c0,2.2,0.5,4.7,1.3,7.7c0.9,2.9,2.4,5.8,4.4,8.5c2.1,2.7,4.9,5.1,8.6,7
		c3.6,2,8.3,2.9,14,2.9c6.5,0,12.8-1.5,19-4.3c6.2-2.9,12-6.5,17.5-10.8c5.5-4.3,10.5-9,15.1-13.9c4.6-4.9,8.7-9.4,12.2-13.6
		c-0.6-7.3-0.9-14.6-0.9-22.1c-0.2-16.5,1.1-33,4.1-49.5c3-16.5,7.3-32.1,13-46.9c1.6-3.9,3.6-8.8,6.1-14.6
		c2.5-5.8,5.7-11.4,9.4-16.7c3.1-4.5,6.6-8.3,10.3-11.4c3.7-3.1,7.8-4.6,12.4-4.6c6.3,0,10.7,2.2,13.3,6.6
		c2.6,4.4,3.9,10.1,3.9,16.9c0,7.1-1,15-3.2,23.7c-2.1,8.7-4.6,17.2-7.4,25.5c-2.8,8.3-5.6,15.6-8.3,22.1
		c-2.7,6.5-4.8,11.1-6.1,13.9c-2.5,5.3-5.1,10.4-7.6,15.2c-2.5,4.8-5.3,9.6-8.2,14.3c-2.9,4.7-6.2,9.6-9.8,14.6
		c-3.6,5-7.8,10.4-12.5,16.1c0.6,5.7,2,11,4.3,15.9c2.3,4.9,5.2,9.2,8.7,12.9c3.5,3.7,7.5,6.6,12,8.7c4.4,2,8.9,3.1,13.4,3.1
		c5.7,0,11.3-1.3,16.9-3.9c5.6-2.6,11-5.9,16.3-10.1c2.5-2,5.5-4.6,8.8-8c3.3-3.3,6.5-6.5,9.5-9.6c3-3.1,5.8-5.7,8.2-8
		c2.4-2.3,4.2-3.4,5.1-3.4c2.7,0,4.1,1.4,4.1,4.1c0,1.8-1.4,4.3-4.1,7.5c-2.7,3.2-6,6.6-9.7,10c-3.7,3.4-7.4,6.7-11.2,9.9
		c-3.7,3.2-6.6,5.4-8.5,6.8c-2,1.4-4,2.9-6.2,4.4c-2.2,1.6-4.7,3-7.5,4.3c-2.8,1.3-6.1,2.4-9.7,3.3c-3.6,0.9-7.8,1.3-12.5,1.4
		c-5.3,0-10.5-1.1-15.5-3.3c-5-2.2-9.6-5.3-13.7-9.1c-4.1-3.8-7.6-8.2-10.5-13.1c-2.9-4.9-4.6-10.1-5.2-15.6
		c-4.7,5.3-9.7,10.3-15,15.1c-5.3,4.7-10.7,9-16.3,12.7c-5.6,3.7-11.3,6.7-17.1,8.9c-5.8,2.2-11.5,3.3-17.2,3.3
		c-5.9,0-11.1-1-15.8-2.9c-4.6-1.9-8.5-4.6-11.7-8.1c-3.2-3.4-5.5-7.3-7.1-11.6c-1.6-4.3-2.4-8.8-2.4-13.5c0-5.1,1-10.6,3.2-16.5
		c7.2-15.1,16.3-26.6,27.1-34.2c10.9-7.7,21.5-11.5,31.9-11.6c5.5,0,10.4,1,14.6,2.9c4.2,2,7.7,4.4,10.5,7.5c2.8,3,4.9,6.3,6.5,9.8
		c1.6,3.5,2.6,6.9,3,10L4779.5,940.7z M4791.5,946.6c11.2-14.6,20.6-30,28.4-46.5c7.8-16.4,14.3-33.1,19.6-50c0.4-1.4,1-3.4,1.8-6.2
		c0.8-2.8,1.5-5.7,2.2-9c0.7-3.2,1.3-6.6,1.9-10.2s0.9-6.9,0.9-10c0-3.7-0.6-7.3-1.8-10.6c-1.2-3.3-3.4-5-6.5-5
		c-2.4,0-4.7,0.9-7.1,2.8c-2.4,1.9-4.6,4.3-6.8,7.2c-3.7,5.1-7,10.8-10,17c-2.9,6.2-5.1,11.1-6.4,14.6c-5.7,15.1-9.8,30.8-12.5,46.9
		c-2.7,16.1-4,32.3-4,48.6c0,1.6,0,3.2,0,5c0,1.8,0.1,3.4,0.3,5V946.6z"/>
	<path fill="#3D3D3D" d="M4897.6,964.8c-1.2,1-2.4,1.3-3.5,1c-1.2-0.3-2.1-0.9-2.7-1.8c-0.6-0.9-0.9-1.9-0.9-3.1
		c0-1.2,0.5-2.3,1.5-3.2c3.7-3.9,7.2-7.8,10.4-11.7c3.2-3.8,6.3-7.4,9.2-10.8c2.2-2.2,4.3-2.9,6.5-2.1c1,0.4,1.8,1.2,2.5,2.5
		c0.7,1.3,1,2.8,1,4.6c1,24.1,6.3,40.8,15.7,50c6.7,6.5,15.4,8.8,26.2,7c11-2,20.7-6,29.1-12.2c5.3-3.7,10.2-7.9,14.7-12.6
		c4.5-4.6,9-9.4,13.5-14.3c1-1.2,2.1-1.8,3.2-1.8c1.2,0,2.2,0.3,2.9,1c0.8,0.7,1.3,1.7,1.5,2.9c0.2,1.3-0.2,2.5-1.2,3.7
		c-5.1,5.3-10,10.4-14.8,15.2c-4.8,4.8-9.8,9.1-15.1,12.9c-4.5,3.4-9.3,6.2-14.4,8.4c-5.1,2.3-10.6,3.9-16.5,4.9
		c-7.1,1.2-14,1.1-20.8-0.4c-6.8-1.5-12.7-5.2-17.8-11.3c-3.7-4.5-6.9-10.4-9.5-17.6c-2.6-7.3-4.4-16.6-5.4-28L4897.6,964.8z
		 M4911.6,897.1c0-2,0.7-3.6,2-4.9c1.4-1.3,3.1-1.9,5.3-1.9c2.2,0,3.9,0.6,5.3,1.9c1.4,1.3,2.1,2.9,2.1,4.9c0,2-0.7,3.6-2,4.9
		c-1.4,1.3-3.1,1.9-5.3,1.9c-2.2,0-3.9-0.6-5.3-1.9C4912.3,900.6,4911.6,899,4911.6,897.1z"/>
	<path fill="#3D3D3D" d="M5027.2,964.8c-2.2,1.6-4.1,1.6-5.7,0c-1.7-1.6-1.9-3.5-0.8-5.9c3.9-4.5,7.7-9,11.5-13.3
		c3.7-4.3,7.6-8.6,11.7-12.7c1.6-1.6,3.2-2,5-1.3c1.8,0.7,2.8,2.2,3,4.6c0,7.1,0.5,13.9,1.4,20.5c0.9,6.6,2.6,12.9,5.2,19
		c1.6,3.9,3.5,7.7,5.8,11.3c2.3,3.6,5.4,6.9,9.3,9.8c3.3,2.5,6.9,4.3,10.8,5.1c3.8,0.9,7.3,1.3,10.5,1.3c5.1,0,9.6-1.5,13.5-4.5
		c3.9-3,7.3-6.4,10.3-10.3c3.9-5.3,7-11.4,9.4-18.1c2.3-6.8,4.2-13.1,5.5-19c0.4-2.7,0.8-5.9,1.3-9.4c0.5-3.5,1-6.7,1.6-9.4
		c0.2-1.4,0.8-2.3,1.8-2.8c1-0.5,2-0.6,2.9-0.3c1,0.3,1.9,0.8,2.7,1.6c0.8,0.8,1.2,1.9,1.2,3.2c0,3.9,0.3,8.2,0.8,12.8
		c0.5,4.6,1.4,9.3,2.5,14c1.2,4.7,2.7,9.3,4.6,13.7c1.9,4.4,4.2,8.4,7,11.9c2.8,3.5,6,6.5,9.7,8.8c3.7,2.3,8,3.7,12.7,4.1
		c3.5,0.4,7.2-0.1,10.9-1.4c3.7-1.3,7.5-3,11.2-5.2c3.5-2.2,7-4.6,10.3-7.4c3.3-2.8,6.6-5.6,9.7-8.6c3.5-3.5,6.9-7,10-10.3
		c3.1-3.3,5.8-6.4,7.9-9.2c1.2-1.2,2.3-1.8,3.4-1.8c1.1,0,2,0.4,2.8,1.2c0.8,0.8,1.2,1.8,1.3,2.9c0.1,1.2-0.3,2.4-1.3,3.5
		c-4.3,5.1-9.1,10.4-14.2,15.8c-5.2,5.4-10.6,10.4-16.3,14.9c-5.7,4.3-11.5,7.8-17.5,10.5c-6,2.7-12.1,3.8-18.4,3.4
		c-5.1-0.4-10.4-1.9-15.9-4.7c-5.5-2.7-9.8-6.3-13-10.6c-3-3.9-5.3-7.7-7-11.5c-1.7-3.7-3-7.3-4-10.6c-0.4-1.2-0.8-2.4-1.2-3.7
		c-0.4-1.3-0.8-2.6-1.2-4c-1.6,6.5-3.7,12.8-6.4,19c-2.7,6.2-6.4,11.7-11.1,16.4c-4.5,4.5-9.6,7.8-15.3,9.9
		c-5.7,2.1-11.5,2.9-17.4,2.6c-5.7-0.4-11.1-1.8-16.2-4.2c-5.1-2.4-9.6-5.9-13.6-10.4c-4.3-5.3-7.8-11.5-10.4-18.5
		c-2-5.1-3.4-10.3-4.2-15.6c-0.8-5.3-1.4-10.5-1.8-15.6c-2.7,3-5.4,6-8.1,9C5032.6,958.5,5029.9,961.6,5027.2,964.8z"/>
	<path fill="#3D3D3D" d="M5246.6,965.6c-2.2,1.6-4.1,1.6-5.7,0c-1.7-1.6-1.9-3.5-0.8-5.9c3.3-3.3,6.9-7.1,10.6-11.2
		c3.7-4.1,7.5-8.5,11.5-13c5.3-6.1,10.3-11.7,15-16.8c4.7-5.1,8.2-8.5,10.6-10c1.8-1.4,3.7-1.9,5.7-1.5c2.1,0.4,4.2,1.4,6.3,2.9
		c3.7,2.5,7.3,5.9,10.6,10c2.8,3.3,5.3,6.7,7.5,10.1c2.3,3.4,3.9,6,4.9,7.8c3,4.9,5.5,9.9,7.7,15c2.2,5.1,3.8,10.3,4.8,15.6
		c1.6,7.5,2.1,14.7,1.4,21.8c-0.7,7.1-2.9,13.7-6.6,19.8c-3.9,6.9-9.8,12.6-17.6,17.1c-6.3,3.4-12.8,5.2-19.7,5.7
		c-6.9,0.4-13.4-0.8-19.4-3.5c-3.3-1.6-6.4-3.5-9.3-5.9c-2.9-2.3-5.4-5.2-7.5-8.5c-0.8-1.4-1-2.6-0.7-3.8c0.3-1.2,0.9-2.1,1.8-2.7
		c0.9-0.6,1.9-0.8,3.1-0.6c1.2,0.2,2.3,0.9,3.2,2.1c2.4,3.1,5,5.7,7.8,7.6c2.8,2,5.8,3.4,9,4.4c7.5,2.5,15.1,2.4,23-0.4
		c6.5-2.2,12-6.2,16.5-12c4.5-5.8,6.9-12.8,7.3-21.1c0.2-9-1.1-18.1-3.9-27.1c-2.2-6.7-5-13.1-8.6-19.4c-3.6-6.3-7.3-11.6-11.4-15.9
		c-4-4.3-7.7-7.6-11.1-10c-2.5,2-4.8,3.9-6.6,5.9c-1.9,2-4,4.3-6.3,7.1c-5.3,6.1-10.6,12.3-16,18.5
		C5258.1,954,5252.5,959.9,5246.6,965.6z"/>
	<path fill="#3D3D3D" d="M5392.2,992.3c-1.4-0.4-2.3-1.1-2.8-2.1c-0.5-1-0.7-2-0.6-2.9c0.1-1,0.5-1.9,1.3-2.7
		c0.8-0.8,1.9-1.2,3.2-1.2c2.6,0.4,5.3,0.7,8.1,0.9c2.8,0.2,5.7,0.3,8.7,0.3c2.7-3.7,5.6-7.4,8.7-10.9c3-3.5,5.9-7.2,8.7-10.9
		c2.2-3,4.2-6,6-9.3c1.9-3.2,3.3-6.5,4.2-9.9c1.2-4.1,1.3-7.5,0.4-10.2c-0.9-2.6-2.4-4.6-4.6-5.7c-4.5-2.3-10.3-2.1-17.4,0.6
		c-4.5,1.8-8.5,4-12.1,6.7c-3.5,2.7-7,5.7-10.3,9c-3.5,3.3-7,6.9-10.6,10.8c-3.5,3.8-7.3,7.7-11.5,11.7c-2.2,1.6-4.1,1.6-5.7,0
		c-1.7-1.6-1.9-3.5-0.8-5.9c6.1-6.1,11.1-11.2,15-15.4c3.9-4.1,8.4-8.4,13.5-12.7c2.7-2.4,5.6-4.5,8.5-6.5c2.9-2,6.1-3.7,9.4-5.3
		c4.5-2.2,8.9-3.4,13.1-3.7c4.2-0.3,8,0.3,11.3,1.9c4.1,2,7.2,5.2,9.3,9.7c2.1,4.5,2.3,10.1,0.8,16.8c-1.9,7.5-5.3,14.3-10.1,20.6
		c-4.8,6.3-9.6,12.5-14.5,18.6c1.6,0,3.1-0.1,4.6-0.2c1.5-0.1,3-0.3,4.6-0.5c4.9-0.4,9.6-0.9,14.1-1.5c4.5-0.6,8.7-1.4,12.7-2.4
		c3.1-0.8,6.3-1.7,9.6-2.8c3.2-1.1,6.5-2.5,9.9-4.3c3.5-2,7.1-4.3,10.7-7.1c3.6-2.8,7.3-6.1,11-10c1.2-1,2.3-1.4,3.4-1.3
		c1.1,0.1,1.9,0.5,2.5,1.3c0.6,0.8,0.9,1.8,1,3.1c0.1,1.3-0.3,2.5-1.3,3.7c-7,7.5-15.1,13.4-24.1,17.7c-6.9,3.6-14,6.2-21.5,8
		c-4.5,1-9.5,1.9-15,2.7c-5.5,0.8-11.1,1.4-16.8,1.8c-2.2,0.2-4.2,0.4-6.2,0.5c-2,0.1-3.9,0.2-5.9,0.2c-0.6,0.6-1.1,1.3-1.5,2.1
		c-2.2,3.3-4.1,6.8-5.7,10.5c-1.7,3.6-2.5,7.4-2.5,11.3c0,1.8,0.5,3,1.3,3.8c0.9,0.8,1.8,1.4,2.8,1.8c1.8,0.6,3.8,0.7,6.2,0.3
		c2.4-0.4,4.6-0.9,6.8-1.5c6.1-2,12-4.6,17.6-7.7c5.7-3.2,11.1-6.4,16.2-9.8c1.4-0.6,2.6-0.7,3.8-0.3c1.2,0.4,2,1,2.5,1.9
		c0.5,0.9,0.6,1.9,0.5,3.1c-0.2,1.2-1,2.2-2.3,3c-3.5,2.4-7.3,4.6-11.2,6.8c-3.9,2.2-7.8,4.2-11.8,6.2c-2.2,1-4.4,2-6.8,3
		c-2.4,1-4.6,1.8-6.8,2.4c-5.7,1.6-10.8,2-15.5,1.4c-4.6-0.7-8-2.7-10.2-6c-2.8-3.9-3-9.8-0.6-17.7c0.8-2.8,1.7-5.3,2.8-7.7
		c1.1-2.4,2.3-4.6,3.7-6.8c-2.2-0.2-4.2-0.3-6.2-0.4C5396.1,993,5394.1,992.7,5392.2,992.3z"/>
</g>
<g>
	<path fill="#212121" d="M1489.6,693l-0.6-397.2h-171.5V254h389.2v41.8h-172.2l0.6,397.2H1489.6z"/>
	<path fill="#212121" d="M1695.6,693l-0.6-319.7h45.5v73.2h1.2c4.9-11.1,10.2-20.8,16-29.2c5.7-8.4,13.3-17,22.8-25.8
		c9.4-8.8,21.2-15.7,35.4-20.6c14.1-4.9,30.2-7.4,48.3-7.4c11.9,0,20.9,0.8,27.1,2.5v46.7c-14.4-2.5-28.3-3.7-41.8-3.7
		c-29.1,0-54.5,9.8-76.2,29.5c-21.7,19.7-32.6,50.2-32.6,91.6l0.6,162.9H1695.6z"/>
	<path fill="#212121" d="M1961.8,471.6H1920c3.7-35.7,17-62.6,40-80.9c23-18.2,60.5-27.4,112.5-27.4c52.1,0,89.5,7.9,112.2,23.7
		c22.8,15.8,34.1,39.5,34.1,71v167.2c0,13.1,1.9,22.3,5.8,27.7c3.9,5.3,10.3,8,19.4,8c5.3,0,13.3-0.4,24-1.2v30.7
		c-16.4,3.3-29.1,4.9-38.1,4.9c-11.1,0-20.1-1.6-27.1-4.9c-7-3.3-12-8.1-15.1-14.4c-3.1-6.4-5-12.2-5.8-17.5
		c-0.8-5.3-1.2-11.9-1.2-19.7h-1.2c-5.3,7.8-10.6,14.4-15.7,19.7c-5.1,5.3-13.2,11.9-24.3,19.7c-11.1,7.8-25.9,13.8-44.6,18.1
		c-18.7,4.3-40.3,6.5-64.9,6.5c-20.1,0-39-2.8-56.9-8.3c-17.8-5.5-33.5-15.9-47-31.1c-13.5-15.2-20.3-34-20.3-56.6
		c0-16.4,3.4-30.7,10.1-43c6.8-12.3,15.2-21.8,25.2-28.6c10-6.8,22.8-12.3,38.1-16.6c15.4-4.3,29.3-7.2,41.8-8.6
		c12.5-1.4,27.2-2.6,44-3.4c34.4-1.6,59.2-3.8,74.4-6.5c15.2-2.7,25.2-6.6,30.1-11.7c4.9-5.1,7.4-13.2,7.4-24.3
		c0-23-8.1-39.1-24.3-48.6c-16.2-9.4-43.3-14.1-81.5-14.1c-36.9,0-63.9,5.3-81.2,16C1972.9,428.2,1963.5,446.2,1961.8,471.6z
		 M2177,569.4v-48.6c-9,6.1-22.4,10.6-40.3,13.2c-17.8,2.7-51.8,6.3-101.8,10.8c-27.9,2.5-48.8,8.3-62.7,17.5
		c-13.9,9.2-20.9,23.1-20.9,41.5c0,43,30.7,64.6,92.2,64.6c34,0,64.8-8.8,92.2-26.4C2163.3,624.3,2177,600.1,2177,569.4z"/>
	<path fill="#212121" d="M2434.1,640.7l125.4-267.5h49.2L2459.3,693h-49.2l-150-319.7h48.6L2434.1,640.7z"/>
	<path fill="#212121" d="M2929.6,590.9h45.5c-10.3,32.4-29.3,59.1-57.2,80.2c-27.9,21.1-66.2,31.7-115,31.7
		c-31.2,0-58.4-5.1-81.8-15.4c-23.4-10.2-41.5-23.8-54.4-40.6c-12.9-16.8-22.4-34.7-28.6-53.8c-6.1-19.1-9.2-39-9.2-60
		c0-48,14.9-88.2,44.6-120.8c29.7-32.6,72.9-48.9,129.4-48.9c22.5,0,43.7,2.8,63.3,8.3c19.7,5.5,38.6,14.7,56.9,27.4
		c18.2,12.7,32.8,31.5,43.7,56.3c10.9,24.8,16.3,54.4,16.3,88.8h-308.7c0,34.4,11.6,63.1,34.7,86.1c23.2,23,54.4,34.4,93.8,34.4
		c36.9,0,65.1-5.9,84.5-17.8C2907,635,2921,616.3,2929.6,590.9z M2674.5,509.7h263.2c-6.1-36.9-21.3-64.1-45.5-81.8
		c-24.2-17.6-52.9-26.4-86.1-26.4c-32.8,0-61.8,8.9-87,26.7S2679,473.3,2674.5,509.7z"/>
	<path fill="#212121" d="M3037.9,693l-0.6-442.7h45.5l0.6,442.7H3037.9z"/>
	<path fill="#212121" d="M3328.7,693l-0.6-439h249.6c41,0,71.6,10.1,91.9,30.4c20.3,20.3,30.4,47,30.4,80.2
		c0,22.5-6.4,42.4-19.1,59.6c-12.7,17.2-31.6,28.7-56.6,34.4v1.2c29.1,4.5,51.9,16.4,68.3,35.7c16.4,19.3,24.6,43.3,24.6,71.9
		c0,21.7-4.3,41-12.9,57.8c-8.6,16.8-20.1,29.9-34.4,39.4c-14.4,9.4-29.7,16.5-46.1,21.2c-16.4,4.7-33.4,7.1-51,7.1H3328.7z
		 M3373.6,295.8v148.8h180.2c32.8,0,57.8-6,75-18.1c17.2-12.1,25.8-32.1,25.8-60c0-47.1-28.5-70.7-85.5-70.7H3373.6z M3373.6,486.4
		v164.8h191.2c31.1,0,56.2-6.8,75-20.3c18.9-13.5,28.3-34.6,28.3-63.3c0-29.9-8.1-50.9-24.3-63c-16.2-12.1-38.8-18.1-67.9-18.1
		H3373.6z"/>
	<path fill="#212121" d="M3777.5,693l-0.6-442.7h45.5L3823,693H3777.5z"/>
	<path fill="#212121" d="M3927.3,653.9c-31.4-32.6-47-72.9-47-120.8c0-48,15.7-88.2,47-120.8s76.1-48.9,134.3-48.9
		c58.2,0,103,16.3,134.4,48.9s47,72.9,47,120.8c0,48-15.7,88.2-47,120.8s-76.1,48.9-134.4,48.9
		C4003.4,702.8,3958.6,686.5,3927.3,653.9z M3962,438.1c-24.2,24.4-36.3,56.1-36.3,95c0,38.9,12.1,70.6,36.3,95
		c24.2,24.4,57.4,36.6,99.6,36.6c42.2,0,75.4-12.2,99.6-36.6c24.2-24.4,36.3-56,36.3-95c0-38.9-12.1-70.6-36.3-95
		c-24.2-24.4-57.4-36.6-99.6-36.6C4019.4,401.5,3986.2,413.7,3962,438.1z"/>
	<path fill="#212121" d="M4597.8,435.3v-62.1h45.5v307.4c0,22.5-3.6,42.6-10.8,60.3c-7.2,17.6-16.5,31.9-28,42.7
		c-11.5,10.9-25.3,19.7-41.5,26.4c-16.2,6.8-32.3,11.5-48.3,14.1c-16,2.7-33,4-51,4c-27.5,0-51.6-2.6-72.2-7.7
		c-20.7-5.1-36.5-11.3-47.3-18.4c-10.9-7.2-19.8-16.1-26.7-26.7c-7-10.7-11.4-19.6-13.2-26.7c-1.8-7.2-3.2-15.3-4-24.3h41.8
		c2,11.1,4.5,19.8,7.4,26.1c2.9,6.4,8.3,13.3,16.3,20.9c8,7.6,20.3,13.2,36.9,16.9c16.6,3.7,37.6,5.5,63,5.5
		c42.6,0,75.3-9.8,98.1-29.5c22.8-19.7,34.1-48.6,34.1-86.7v-57.2h-1.2c-26.7,48.4-73.6,72.6-140.8,72.6c-21.3,0-41.6-3-60.9-8.9
		c-19.3-5.9-37.4-15.1-54.4-27.4c-17-12.3-30.4-29.6-40.3-52c-9.8-22.3-14.8-48.5-14.8-78.4c0-45.9,14.9-84.5,44.6-115.9
		c29.7-31.4,73.1-47,130-47c32,0,60.2,6.1,84.5,18.1c24.4,12.1,41.7,30,52,53.8H4597.8z M4599,526.3c0-35.7-12-65.4-36-89.2
		c-24-23.8-57.5-35.7-100.5-35.7c-40.6,0-72.7,11-96.2,32.9c-23.6,21.9-35.4,52.6-35.4,91.9c0,44.3,12.3,76.8,36.9,97.5
		c24.6,20.7,57.4,31.1,98.4,31.1c38.9,0,70.8-11.5,95.6-34.4C4586.6,597.5,4599,566.1,4599,526.3z"/>
</g>
</svg>
