<?xml version="1.0" encoding="utf-8"?>
<!-- Generator: Adobe Illustrator 15.0.0, SVG Export Plug-In . SVG Version: 6.00 Build 0)  -->
<!DOCTYPE svg PUBLIC "-//W3C//DTD SVG 1.1//EN" "http://www.w3.org/Graphics/SVG/1.1/DTD/svg11.dtd">
<svg version="1.1" id="Warstwa_1" xmlns="http://www.w3.org/2000/svg" xmlns:xlink="http://www.w3.org/1999/xlink" x="0px" y="0px"
	 width="5506.101px" height="1260px" viewBox="0 0 5506.101 1260" enable-background="new 0 0 5506.101 1260" xml:space="preserve">
<rect x="251.4" y="1008" fill="#65CCEC" width="126" height="126"/>
<rect x="377.4" y="1008" fill="#3BC6F4" width="126" height="126"/>
<rect x="503.399" y="1008" fill="#87D3E2" width="126" height="126"/>
<rect x="629.399" y="1008" fill="#6BCAF3" width="126" height="126"/>
<rect x="755.399" y="1008" fill="#94D8EC" width="126" height="126"/>
<rect x="881.399" y="1008" fill="#4AB5E7" width="126" height="126"/>
<rect x="881.399" y="378" fill="#91D7EE" width="126" height="126"/>
<rect x="1007.399" y="378" fill="#53C9ED" width="126" height="126"/>
<rect x="125.4" y="378" fill="#30C1FB" width="126" height="126"/>
<rect x="251.4" y="378" fill="#00ABDF" width="126" height="126"/>
<rect x="629.399" y="252" fill="#47C7EF" width="126" height="126"/>
<rect x="629.399" y="630" fill="#94D8EC" width="126" height="126"/>
<rect x="755.399" y="504" fill="#76CFE4" width="126" height="126"/>
<rect x="881.399" y="252" fill="#53C9ED" width="126" height="126"/>
<rect x="1007.399" y="252" fill="#30C1FB" width="126" height="126"/>
<rect x="125.4" y="252" fill="#84D5F7" width="126" height="126"/>
<rect x="251.4" y="252" fill="#6CC4EF" width="126" height="126"/>
<rect x="629.399" y="882" fill="#50C8F4" width="126" height="126"/>
<rect x="503.399" y="252" fill="#00ABDF" width="126" height="126"/>
<rect x="755.399" y="378" fill="#53C8EA" width="126" height="126"/>
<rect x="881.399" y="126" fill="#C5E8F3" width="126" height="126"/>
<rect x="251.4" y="126" fill="#A8DFF3" width="126" height="126"/>
<rect x="377.4" y="126" fill="#81D2E8" width="126" height="126"/>
<rect x="503.399" y="126" fill="#53C8EA" width="126" height="126"/>
<rect x="629.399" y="126" fill="#33C6F4" width="126" height="126"/>
<rect x="755.399" y="126" fill="#6DCDE9" width="126" height="126"/>
<rect x="881.399" y="504" fill="#03B3DE" width="126" height="126"/>
<rect x="1007.399" y="504" fill="#46C7F2" width="126" height="126"/>
<rect x="125.4" y="504" fill="#42B5E8" width="126" height="126"/>
<rect x="251.4" y="504" fill="#84D3E6" width="126" height="126"/>
<rect x="755.399" y="756" fill="#68CCE2" width="126" height="126"/>
<rect x="377.4" y="882" fill="#7AD1ED" width="126" height="126"/>
<rect x="629.399" y="504" fill="#53C9ED" width="126" height="126"/>
<rect x="881.399" y="630" fill="#6DCDE9" width="126" height="126"/>
<rect x="1007.399" y="630" fill="#30C1FB" width="126" height="126"/>
<rect x="125.4" y="630" fill="#76CFE4" width="126" height="126"/>
<rect x="251.4" y="630" fill="#97D8E8" width="126" height="126"/>
<rect x="377.4" y="504" fill="#53CAF5" width="126" height="126"/>
<rect x="377.4" y="630" fill="#6ECDE0" width="126" height="126"/>
<rect x="881.399" y="756" fill="#7FD2EA" width="126" height="126"/>
<rect x="1007.399" y="756" fill="#53CAF5" width="126" height="126"/>
<rect x="125.4" y="756" fill="#53CAF5" width="126" height="126"/>
<rect x="251.4" y="756" fill="#46C7F2" width="126" height="126"/>
<rect x="503.399" y="756" fill="#30C1FB" width="126" height="126"/>
<rect x="755.399" y="630" fill="#45BEEE" width="126" height="126"/>
<rect x="881.399" y="882" fill="#6CCFF5" width="126" height="126"/>
<rect x="1007.399" y="882" fill="#53C8EA" width="126" height="126"/>
<rect x="125.4" y="882" fill="#7AD1ED" width="126" height="126"/>
<rect x="251.4" y="882" fill="#45BEEE" width="126" height="126"/>
<rect x="503.399" y="882" fill="#4AB5E7" width="126" height="126"/>
<rect x="377.4" y="252" fill="#71CEE6" width="126" height="126"/>
<rect x="503.399" y="378" fill="#84D5F7" width="126" height="126"/>
<g>
	<path fill="#FFFFFF" d="M3388.3,968.7c-1,0.6-2,0.899-2.9,0.899c-2.799,0-4.1-1.399-4.1-4.1c0-1.2,0.199-2.1,0.6-2.7
		c2.201-2.2,4.201-4.2,6.201-6.2s3.799-4,5.6-6.199c-0.6-6.101-0.9-12.4-0.9-18.801c0-12,1.1-24,3.4-35.899
		c2.299-12,5.199-23.3,8.699-33.9c0.6-2,1.4-4.399,2.5-7.399c1.1-2.9,2.301-6.101,3.801-9.601c1.5-3.399,3.1-7,5-10.6
		s3.9-7.1,6-10.5c3.5-5.7,7.4-10.5,11.699-14.3c4.301-3.8,8.801-5.8,13.5-5.8c5.1,0,8.5,2.199,10.301,6.699
		c1.799,4.5,2.699,9.7,2.699,15.601c0,11.199-1.5,22.399-4.6,33.6s-7.4,22.4-12.9,33.6c-5.299,10.801-11.299,21.2-18.199,31.101
		c-6.801,9.899-14,19.3-21.4,28.2c1.6,6.5,3.801,13,6.699,19.6c2.9,6.6,6.602,12.6,11.102,18.1s10.1,10,16.799,13.601
		c6.701,3.6,14.5,5.699,23.602,6.3c10.6,0.8,18.898-1.2,24.898-6c6-4.7,9-11.601,8.9-20.601c0-7.3-1.5-15-4.5-23.3
		c-0.199-0.399-0.301-0.899-0.301-1.5c0-1.399,0.4-2.399,1.301-3.1s1.801-1,2.801-1c1.6,0,2.898,0.7,4.1,2c1.6,3.1,3.6,6.1,5.9,9
		c2.398,2.8,5,5.3,8,7.5s6,3.9,9.1,5.1c3.1,1.3,6.4,1.9,9.699,1.9c7.9,0,14.4-1.4,19.602-4.2c5.199-2.8,10.6-7.3,16.299-13.6
		c1-1,2.1-1.7,3.4-2.101c1.301-0.399,2.4-0.1,3.4,0.9s1.5,2.2,1.5,3.5c0,1.4-0.5,2.6-1.5,3.5c-4.9,5.7-11,10.6-18.201,14.6
		c-7.299,4-14,6.301-20.299,6.7c-7.102,0.4-13.301-0.5-18.602-2.6c-5.299-2.101-9.699-4.9-13.299-8.2c0.199,1,0.299,1.9,0.299,2.7
		s0,1.6,0,2.399c0,4.5-0.799,9-2.5,13.4c-1.699,4.4-4.199,8.4-7.799,11.9s-8,6.3-13.5,8.3s-12.1,2.7-19.701,2.1
		c-9.799-0.8-18.398-3-25.799-6.7c-7.4-3.699-13.801-8.399-19.301-14.1c-4.9-5.1-9-10.9-12.299-17.3
		c-3.301-6.5-5.801-13.2-7.602-20.3c-1.398,1.399-2.6,2.7-3.799,4C3390.601,966.3,3389.4,967.5,3388.3,968.7z M3401.4,931
		c0,1.6,0,3.2,0,4.9c0,1.699,0.1,3.399,0.301,5.199c7.398-9.199,13.898-18.399,19.5-27.6c5.6-9.2,10.6-18.9,15.1-29.3
		c2.1-4.9,4.1-9.9,5.801-15c1.799-5.1,3.5-10.5,5.299-16.2c1.4-4.3,2.301-8.9,2.9-13.7s0.9-9.199,0.801-13.3
		c0-4-0.301-7.3-0.9-9.899c-0.6-2.5-1.5-3.7-2.701-3.5c-3.299,0.399-6.6,2-9.699,4.899c-3.1,2.9-6.301,6.601-9.4,11.4
		c-3.699,5.7-7.199,12.5-10.5,20.5c-3.299,8-6.199,16.5-8.6,25.6s-4.4,18.5-5.801,28.1C3402.101,912.6,3401.4,921.9,3401.4,931z"/>
	<path fill="#FFFFFF" d="M3573.8,968.5c-1.199,1-2.4,1.3-3.5,1s-2.1-0.9-2.699-1.8c-0.602-0.9-0.9-1.9-0.9-3.101
		c0-1.199,0.5-2.3,1.5-3.199c4.1-3.9,7.9-8,11.299-12.101c3.4-4.1,6.602-7.899,9.5-11.2c1.801-2.199,3.602-2.8,5.602-1.8
		s3.1,3.5,3.299,7.601c1,22.399,5.5,38.3,13.4,47.699c7.1,8.2,16.6,11.301,28.6,9.301c6.5-1.2,12.301-3,17.5-5.5
		c5.201-2.5,9.9-5.4,14.102-8.7c4.199-3.3,8-6.9,11.5-10.8c3.398-3.801,6.5-7.7,9.199-11.7c1.6-2.4,3.699-3.4,6.301-3.101
		c2.699,0.301,4.199,1.801,4.6,4.601c1.199,8.8,1.4,17.6,0.5,26.399c-0.9,8.7-2.201,17.4-3.9,26.101
		c6.699-3.2,12.801-6.601,18.4-10.2s10.699-7.4,15.4-11.4c7.199-5.899,13.699-11.899,19.199-18c5.6-6.1,10.801-11.699,15.699-16.8
		c1.201-1.2,2.4-1.8,3.5-1.8c1.201,0,2.102,0.3,2.801,1s1.1,1.6,1.301,2.8c0.199,1.2-0.201,2.4-1.201,3.5
		c-5.299,6.101-11.1,12.2-17.299,18.3c-6.301,6.101-12.9,12-20,17.7c-8.801,7.101-18.201,13.3-28.201,18.601
		c-2.199,1-4.199,2-6.199,3.1s-3.9,2.1-5.9,3.1c-0.199,1-0.4,2-0.6,3.101c-0.201,1.1-0.4,2.1-0.6,3.1c-2.5,10.6-5.701,20.7-9.5,30.4
		c-3.801,9.6-8.801,18.899-15.102,27.699c-2.299,3.301-4.799,6.5-7.5,9.601c-2.6,3-5.6,6.1-9,9c-3.898,3.899-7.799,6.3-11.799,7
		c-3.9,0.7-7.301,0.2-10-1.601c-4.701-3.1-7.4-8.8-8-17.1c-0.602-9.6,1.199-18.7,5.5-27.1c2.1-4.101,4.699-7.9,7.6-11.2
		s6.199-6.5,9.699-9.5c6.301-5.5,13-10.6,20.102-15.4c7.199-4.699,14.398-9.1,21.6-13c1.699-8.3,3-16.3,3.9-24.199
		c0.898-7.9,1.299-15.4,1.299-22.7l-1.799,1.8c-1.201,1.2-2.301,2.4-3.4,3.7s-2.4,2.5-4,3.7c-6.301,6.1-12.701,11.199-19.4,15.199
		s-14.6,6.9-23.801,8.5c-6.898,1.2-13.5,1.2-20-0.1s-12.299-4.7-17.398-10.4c-3.9-4.5-7.301-10.5-10.201-18.1
		c-2.898-7.5-4.799-17.3-5.799-29.3L3573.8,968.5z M3644.601,1108.2c2.699-2,5.398-4.101,8.1-6.5c2.6-2.4,5-4.9,7.199-7.7
		c6.801-8.3,12.5-17.5,16.9-27.7c4.4-10.199,8-21,11-32.399c-4.699,2.8-9.199,5.6-13.5,8.6s-8.801,6.4-13.5,10.3
		c-5.5,4.5-10.5,8.9-15,13c-4.5,4.101-7.801,9-10,14.801c-1,2.6-1.801,5.399-2.301,8.5c-0.6,3.1-0.699,6.3-0.299,9.399
		C3634.701,1108.7,3638.5,1111.9,3644.601,1108.2z"/>
	<path fill="#FFFFFF" d="M3895.101,844.5c-2.801,1-4.801,0.6-6-1.3c-1.301-1.9-0.9-3.8,1-5.7c2.5-1.8,5.6-3.7,9.299-5.8
		c3.6-2.1,7.6-4.5,11.9-7.2c4.5-2.8,9.1-5.7,13.801-8.7c4.699-3.1,9.299-5.6,13.799-7.5c2,0.4,3.301,1.6,4.1,3.5
		c1,7.7,2,15.6,2.9,23.7c0.9,8.1,1.701,16,2.301,23.7c1,11.6,1.6,23.1,1.9,34.6c0.199,11.5-0.102,23.4-1.102,35.8
		c-0.398,5.9-1.199,12.2-2.6,18.9s-3.301,13.2-5.699,19.6c-2.4,6.4-5.4,12.4-8.801,18c-3.4,5.601-7.5,10.4-12.301,14.301
		c-4.799,3.899-10.199,6.8-16.299,8.6s-13,1.9-20.6,0.4c-4.5-1-8.602-2.4-12.4-4.4c-3.701-2-7.5-4-11.201-6.2
		c-2.398-2.2-2.799-4.3-1.199-6.3c1.6-2.1,3.699-2.3,6.5-0.8c3.1,2,6.301,3.8,9.4,5.399c3.1,1.7,6.6,2.801,10.299,3.4
		c10,1.7,18.4,0.6,25-3.5c6.701-4,12.102-9.8,16.4-17.3c2.1-3.7,4-7.601,5.6-11.601c1.602-4,2.9-8.199,4.102-12.5
		c2.1-7.5,3.6-15.199,4.5-23.3c0.898-8,1.398-16.2,1.6-24.3c0.199-8.1,0.1-16.2-0.4-24.3c-0.4-8-0.9-15.9-1.5-23.6
		c-0.6-6.9-1.299-13.7-2-20.5c-0.699-6.801-1.6-13.601-2.6-20.5c-4.5,2.8-8.9,5.6-13.1,8.399c-4.201,2.9-8.9,6-14,9.3
		c-2,1.2-4,2.4-6,3.7C3899.601,841.8,3897.4,843.1,3895.101,844.5z M4054.4,840.5c2.5-1.2,4.5-0.9,5.9,0.9
		c1.4,1.8,1.299,3.699-0.301,5.899c-15.5,12.4-31.199,24.5-47.199,36.4c-16,11.8-31.9,23.6-47.801,35.5c3.6,10.2,8.1,20.1,13.6,29.7
		c5.5,9.6,12,18.3,19.4,26s15.6,14.399,24.801,20c9.1,5.6,19.299,9.399,30.5,11.5c6.1,1.2,12.199,1.7,18.299,1.7
		c6.102,0,12.201-0.801,18.301-2.4c6.301-1.8,12.201-4.3,17.801-7.4c5.6-3.2,10.898-6.8,15.898-10.8s9.801-8.3,14.4-12.8
		s9.201-9.2,13.701-13.9c1.199-1.2,2.398-1.8,3.5-1.8c1.199,0,2.1,0.4,2.799,1.2c0.701,0.8,1.1,1.8,1.301,2.9
		c0.199,1.199-0.201,2.399-1.201,3.5C4148.3,977,4138.4,986.3,4128.3,994.4c-10.102,8.1-21.9,14.6-35.4,19.5
		c-6.301,2.2-13,3.3-20.301,3.3c-7.299,0-14.1-0.7-20.6-2c-12.199-2.5-23.301-6.8-33.5-12.9c-10.1-6.1-19.199-13.399-27.199-22
		c-8-8.6-14.9-18.2-20.801-28.7s-10.801-21.399-14.5-32.8c-0.4-2,0.1-3.6,1.5-5C3973.8,901.4,3990,889.3,4006.3,877.4
		C4022.5,865.6,4038.5,853.3,4054.4,840.5z"/>
	<path fill="#FFFFFF" d="M4156.601,967.5c-1,0.8-2.102,1.2-3.201,1.2c-1,0-1.9-0.4-2.699-1.3c-0.801-0.9-1.201-1.9-1.201-3.101
		c0-0.8,0.5-1.899,1.5-3.399s2.201-3,3.701-4.601c1.5-1.6,2.898-3.1,4.398-4.6s2.701-2.8,3.701-4c-0.801-3.9-1.301-8-1.701-12.2
		c-0.299-4.2-0.5-8.4-0.5-12.5c0-13,1.301-26.6,4.201-40.8c2.799-14.2,6.699-27.4,11.799-39.3c5.102-12,11.4-21.9,18.9-29.7
		s15.201-11.7,23.1-11.7c5.102,0,8.602,2.2,10.5,6.601c1.9,4.399,2.801,9.6,2.801,15.5c0,10.6-1.4,21.199-4.301,31.8
		c-2.898,10.6-6.898,21-11.799,31.1c-5,10.1-10.701,19.9-17.1,29.4c-6.5,9.399-13.102,18.3-20,26.6c-1,1.4-2.102,2.7-3.201,3.8
		c-1.199,1.2-2.299,2.5-3.199,3.8c3.799,18.4,10.799,31.601,21,39.601c10.199,7.899,22.199,11.899,36,11.8
		c6.898,0,13.398-1.2,19.699-3.6c6.301-2.4,12.201-5.5,17.801-9.5c5.6-3.9,10.799-8.301,15.699-13.101s9.6-9.8,14.1-14.899
		c1.201-1.2,2.4-1.801,3.801-1.801c2.5,0,3.799,1.4,3.799,4.101c0,1.6-0.898,3.5-2.6,5.899c-1.799,2.4-3.9,4.9-6.5,7.5
		c-2.5,2.7-5.199,5.2-7.9,7.7c-2.699,2.5-5.1,4.5-7.1,6.101c-7.799,6.3-16.199,11.3-25,14.899c-8.799,3.7-18,5.5-27.4,5.5
		c-6.699,0-13.1-0.899-19.299-2.899c-6.201-1.9-11.9-5-17.301-9.101c-5.299-4.1-10.199-9.399-14.6-16c-4.4-6.6-8.199-14.6-11.4-24
		c-1.398,1.601-2.699,3.101-4.1,4.601C4159.701,964.4,4158.201,965.9,4156.601,967.5z M4170.701,938.3
		c11.199-13.2,20.9-26.899,29.199-41.2c8.301-14.3,14.602-29.199,18.9-45c1-3.1,2-7.3,3.1-12.5c1.102-5.199,1.602-10.3,1.602-15.2
		c0-3.1-0.4-6.3-1.201-9.6c-0.799-3.2-2.6-4.9-5.299-4.8c-2.801,0-6.801,2.4-12.102,7.1c-5.299,4.7-10.6,11.7-15.799,21
		c-5.301,9.2-9.9,20.601-13.701,34.2c-3.898,13.601-5.799,29.101-5.799,46.5c0,3.3,0.1,6.601,0.299,9.7
		C4170,931.7,4170.3,934.9,4170.701,938.3z"/>
	<path fill="#FFFFFF" d="M4392.201,940.3c0.4,1.8,0.199,3.101-0.6,4.101c-0.801,1-1.701,1.5-2.602,1.6c-1,0.1-2-0.2-3.1-0.9
		s-1.699-1.8-1.9-3.399c-1.6-7.301-4.6-12.801-8.898-16.601c-4.301-3.8-9.602-5.899-15.9-6.3c-6.9-0.4-14.1,1.7-21.801,6.2
		c-7.6,4.5-14.799,11.3-21.398,20.4c-4.301,5.699-8,12-11.102,18.899c-3.1,6.9-4.699,14-4.699,21.2c0,7.7,2.6,13.1,7.699,16.5
		c5.102,3.3,11.201,4,18.301,2c5.5-1.6,10.799-4.1,15.9-7.4c5.1-3.399,9.898-7.1,14.398-11.199c4.5-4.101,8.701-8.5,12.602-13.101
		c3.898-4.6,7.6-9.1,11.199-13.399c1.4-1.801,3.1-2.4,5.1-1.801c2,0.601,3,2.301,2.801,5c-0.4,2.2-0.801,4.801-1.301,8
		c-0.5,3.101-0.799,6.101-1,8.801c-0.398,4.699-0.1,9,0.9,12.8s2.6,6.899,4.701,9.1c2.199,2.3,5,3.6,8.398,4
		c3.4,0.4,7.602-0.6,12.5-3c4.9-2.4,10-5.6,15.4-9.8c5.4-4.1,10.6-8.5,15.701-13c3.898-3.3,7.5-6.7,10.898-10
		c3.301-3.3,6.4-6.4,9.102-9.2c1.199-1.2,2.398-1.8,3.5-1.8c1.199,0,2.1,0.4,2.799,1.2c0.701,0.8,1.1,1.8,1.301,2.899
		c0.199,1.2-0.201,2.4-1.201,3.5c-3.299,3.4-7,6.9-11,10.801c-4,3.8-8.299,7.6-12.799,11.399c-5.9,4.9-12,9.5-18.201,13.7
		c-6.299,4.2-12.5,7.5-18.799,9.9c-5.5,2-10.301,2.399-14.301,1.199c-4-1.199-7.4-3.3-10-6.5c-2.699-3.1-4.6-7-5.9-11.5
		c-1.299-4.5-1.898-9-2-13.5V976.4c-3.299,3.899-7,7.899-10.898,11.8c-3.9,3.899-8,7.6-12.201,10.899c-4.199,3.4-8.5,6.2-12.9,8.601
		c-4.398,2.399-8.799,3.899-13.1,4.7c-3.1,0.6-5.699,1-7.699,1.3s-4.301,0.3-7.102-0.101c-5.299-0.8-9.6-2.399-12.799-4.8
		c-3.201-2.399-5.6-5.399-7.1-9c-1.5-3.5-2.201-7.399-2.201-11.6s0.5-8.6,1.4-13.1c1.9-7.9,5.1-15.7,9.4-23.4
		c4.299-7.8,8.5-13.9,12.6-18.4c6.299-6.7,13.199-12.3,20.9-16.8c7.6-4.5,15.5-6.7,23.5-6.5c5.299,0,10,1,14,3.1
		c4,2,7.398,4.601,10.199,7.601s4.9,6.3,6.4,9.8C4390.8,934.1,4391.8,937.4,4392.201,940.3z"/>
	<path fill="#FFFFFF" d="M4469.4,966.3c-2.199,1.601-4.1,1.601-5.699,0c-1.701-1.6-1.9-3.5-0.801-5.899c3.9-4.5,7.701-9,11.5-13.301
		c3.701-4.3,7.6-8.6,11.701-12.699c1.6-1.601,3.199-2,5-1.301c1.799,0.7,2.799,2.2,3,4.601c0,7.1,0.5,13.899,1.398,20.5
		c0.9,6.6,2.602,12.899,5.201,19c1.6,3.899,3.5,7.7,5.799,11.3c2.301,3.6,5.4,6.9,9.301,9.8c3.299,2.5,6.9,4.3,10.799,5.1
		c3.801,0.9,7.301,1.301,10.5,1.301c5.102,0,9.602-1.5,13.5-4.5c3.9-3,7.301-6.4,10.301-10.301c3.9-5.3,7-11.399,9.4-18.1
		c2.299-6.8,4.199-13.1,5.5-19c0.398-2.7,0.799-5.9,1.299-9.4s1-6.699,1.6-9.399c0.201-1.4,0.801-2.3,1.801-2.8s2-0.601,2.9-0.301
		c1,0.301,1.898,0.801,2.699,1.601s1.201,1.899,1.201,3.2c0,3.899,0.299,8.199,0.799,12.8c0.5,4.6,1.4,9.3,2.5,14
		c1.201,4.7,2.701,9.3,4.6,13.7c1.9,4.399,4.201,8.399,7,11.899c2.801,3.5,6,6.5,9.701,8.8c3.699,2.301,8,3.7,12.699,4.101
		c3.5,0.399,7.201-0.101,10.9-1.4c3.701-1.3,7.5-3,11.201-5.2c3.5-2.199,7-4.6,10.299-7.399c3.301-2.8,6.6-5.601,9.701-8.601
		c3.5-3.5,6.898-7,10-10.3c3.1-3.3,5.799-6.399,7.898-9.2c1.201-1.199,2.301-1.8,3.4-1.8s2,0.4,2.801,1.2
		c0.799,0.8,1.199,1.8,1.299,2.9c0.1,1.199-0.299,2.399-1.299,3.5c-4.301,5.1-9.102,10.399-14.201,15.8
		c-5.199,5.399-10.6,10.399-16.299,14.899c-5.701,4.301-11.5,7.801-17.5,10.5c-6,2.7-12.102,3.801-18.4,3.4
		c-5.1-0.4-10.4-1.9-15.9-4.7c-5.5-2.7-9.799-6.3-13-10.6c-3-3.9-5.299-7.7-7-11.5c-1.699-3.7-3-7.3-4-10.6
		c-0.4-1.2-0.799-2.4-1.199-3.7s-0.801-2.601-1.201-4c-1.6,6.5-3.699,12.8-6.4,19c-2.699,6.2-6.398,11.7-11.1,16.399
		c-4.5,4.5-9.6,7.801-15.299,9.9c-5.701,2.1-11.5,2.9-17.4,2.6c-5.701-0.399-11.1-1.8-16.201-4.199c-5.1-2.4-9.6-5.9-13.6-10.4
		c-4.299-5.3-7.799-11.5-10.4-18.5c-2-5.1-3.398-10.3-4.199-15.6c-0.801-5.301-1.4-10.5-1.801-15.601c-2.699,3-5.398,6-8.1,9
		C4474.8,960.1,4472.101,963.2,4469.4,966.3z"/>
	<path fill="#FFFFFF" d="M4779.5,940.7c0,2.899-1.299,4.399-3.799,4.399c-1,0-1.9-0.3-2.801-1c-0.898-0.699-1.398-1.8-1.6-3.399
		c-1.6-7.5-4.699-13.101-9.5-17.101c-4.699-3.899-10.4-5.899-17.1-5.8c-4.301,0-9.5,1.5-15.6,4.3c-6.102,2.9-11.9,6.7-17.5,11.5
		C4706,938.4,4701.3,944.2,4697.4,950.9c-3.9,6.699-5.9,13.899-5.799,21.5c0,2.199,0.5,4.699,1.299,7.699c0.9,2.9,2.4,5.801,4.4,8.5
		c2.1,2.7,4.9,5.101,8.6,7c3.6,2,8.301,2.9,14,2.9c6.5,0,12.801-1.5,19-4.3c6.201-2.9,12-6.5,17.5-10.8s10.5-9,15.1-13.9
		c4.602-4.9,8.701-9.4,12.201-13.6c-0.6-7.3-0.9-14.601-0.9-22.101c-0.199-16.5,1.1-33,4.1-49.5s7.301-32.1,13-46.899
		c1.602-3.9,3.602-8.8,6.102-14.601c2.5-5.8,5.699-11.399,9.398-16.699c3.102-4.5,6.602-8.301,10.301-11.4s7.799-4.6,12.4-4.6
		c6.299,0,10.699,2.199,13.299,6.6s3.9,10.1,3.9,16.9c0,7.1-1,15-3.201,23.699c-2.1,8.7-4.6,17.2-7.398,25.5
		c-2.801,8.301-5.602,15.601-8.301,22.101s-4.799,11.1-6.1,13.899c-2.5,5.301-5.1,10.4-7.6,15.2s-5.301,9.601-8.201,14.3
		c-2.9,4.7-6.199,9.601-9.799,14.601c-3.602,5-7.801,10.399-12.5,16.1c0.6,5.7,2,11,4.299,15.9c2.301,4.899,5.201,9.2,8.701,12.899
		c3.5,3.7,7.5,6.601,12,8.7c4.398,2,8.898,3.101,13.398,3.101c5.701,0,11.301-1.301,16.9-3.9s11-5.9,16.301-10.1
		c2.5-2,5.5-4.601,8.799-8c3.301-3.301,6.5-6.5,9.5-9.601c3-3.1,5.801-5.7,8.201-8c2.398-2.3,4.199-3.399,5.1-3.399
		c2.699,0,4.1,1.399,4.1,4.1c0,1.8-1.4,4.3-4.1,7.5c-2.701,3.2-6,6.6-9.701,10c-3.699,3.4-7.398,6.7-11.199,9.9
		c-3.701,3.199-6.6,5.399-8.5,6.8c-2,1.399-4,2.899-6.201,4.399c-2.199,1.601-4.699,3-7.5,4.301c-2.799,1.3-6.1,2.399-9.699,3.3
		c-3.6,0.899-7.801,1.3-12.5,1.399c-5.301,0-10.5-1.1-15.5-3.3s-9.6-5.3-13.701-9.1c-4.1-3.8-7.6-8.2-10.5-13.101
		c-2.898-4.899-4.6-10.1-5.199-15.6c-4.701,5.3-9.701,10.3-15,15.1c-5.301,4.7-10.701,9-16.301,12.7s-11.299,6.7-17.1,8.9
		c-5.799,2.2-11.5,3.3-17.199,3.3c-5.9,0-11.102-1-15.801-2.9c-4.6-1.899-8.5-4.6-11.699-8.1c-3.201-3.4-5.5-7.3-7.102-11.6
		c-1.6-4.301-2.398-8.801-2.398-13.5c0-5.101,1-10.601,3.199-16.5c7.201-15.101,16.301-26.601,27.1-34.2
		c10.9-7.7,21.5-11.5,31.9-11.601c5.5,0,10.4,1,14.6,2.9c4.201,2,7.701,4.4,10.5,7.5c2.801,3,4.9,6.3,6.5,9.8
		c1.602,3.5,2.602,6.9,3,10L4779.5,940.7z M4791.5,946.6c11.201-14.6,20.602-30,28.4-46.5c7.801-16.399,14.301-33.1,19.6-50
		c0.4-1.399,1-3.399,1.801-6.199c0.799-2.801,1.5-5.7,2.199-9c0.701-3.2,1.301-6.601,1.9-10.2c0.6-3.601,0.9-6.9,0.9-10
		c0-3.7-0.6-7.301-1.801-10.601c-1.199-3.3-3.398-5-6.5-5c-2.398,0-4.699,0.9-7.1,2.8c-2.4,1.9-4.6,4.301-6.799,7.2
		c-3.701,5.101-7,10.8-10,17c-2.9,6.2-5.102,11.101-6.4,14.601c-5.701,15.1-9.801,30.8-12.5,46.899c-2.701,16.101-4,32.301-4,48.601
		c0,1.6,0,3.2,0,5s0.1,3.399,0.299,5V946.6z"/>
	<path fill="#FFFFFF" d="M4897.601,964.8c-1.201,1-2.4,1.3-3.5,1c-1.201-0.3-2.102-0.899-2.701-1.8s-0.9-1.9-0.9-3.1
		c0-1.2,0.5-2.301,1.5-3.2c3.701-3.9,7.201-7.8,10.4-11.7c3.201-3.8,6.301-7.4,9.201-10.8c2.199-2.2,4.299-2.9,6.5-2.101
		c1,0.4,1.799,1.2,2.5,2.5c0.699,1.301,1,2.801,1,4.601c1,24.1,6.299,40.8,15.699,50c6.701,6.5,15.4,8.8,26.201,7
		c11-2,20.699-6,29.1-12.2c5.299-3.7,10.199-7.9,14.699-12.6c4.5-4.601,9-9.4,13.5-14.301c1-1.199,2.102-1.8,3.201-1.8
		c1.199,0,2.199,0.3,2.9,1c0.799,0.7,1.299,1.7,1.5,2.9c0.199,1.3-0.201,2.5-1.201,3.7c-5.1,5.3-10,10.399-14.799,15.2
		c-4.801,4.8-9.801,9.1-15.102,12.899c-4.5,3.4-9.299,6.2-14.398,8.4c-5.102,2.3-10.602,3.899-16.5,4.899
		c-7.102,1.2-14,1.101-20.801-0.399c-6.799-1.5-12.699-5.2-17.799-11.3c-3.701-4.5-6.9-10.4-9.5-17.601c-2.602-7.3-4.4-16.6-5.4-28
		L4897.601,964.8z M4911.601,897.1c0-2,0.699-3.6,2-4.899c1.398-1.3,3.1-1.9,5.299-1.9c2.201,0,3.9,0.6,5.301,1.9
		c1.398,1.3,2.1,2.899,2.1,4.899s-0.701,3.601-2,4.9c-1.4,1.3-3.1,1.9-5.301,1.9c-2.199,0-3.898-0.601-5.299-1.9
		C4912.3,900.6,4911.601,899,4911.601,897.1z"/>
	<path fill="#FFFFFF" d="M5027.201,964.8c-2.201,1.601-4.1,1.601-5.701,0c-1.699-1.6-1.898-3.5-0.799-5.899
		c3.9-4.5,7.699-9,11.5-13.301c3.699-4.3,7.6-8.6,11.699-12.699c1.602-1.601,3.201-2,5-1.301c1.801,0.7,2.801,2.2,3,4.601
		c0,7.1,0.5,13.899,1.4,20.5c0.9,6.6,2.6,12.899,5.201,19c1.6,3.899,3.5,7.7,5.799,11.3c2.301,3.6,5.4,6.9,9.301,9.8
		c3.299,2.5,6.898,4.3,10.799,5.1c3.801,0.9,7.301,1.301,10.5,1.301c5.1,0,9.6-1.5,13.5-4.5s7.301-6.4,10.301-10.301
		c3.898-5.3,7-11.399,9.398-18.1c2.301-6.8,4.201-13.1,5.5-19c0.4-2.7,0.801-5.9,1.301-9.4s1-6.699,1.6-9.399
		c0.201-1.4,0.801-2.3,1.801-2.8s2-0.601,2.898-0.301c1,0.301,1.9,0.801,2.701,1.601c0.799,0.8,1.199,1.899,1.199,3.2
		c0,3.899,0.301,8.199,0.801,12.8c0.5,4.6,1.4,9.3,2.5,14c1.199,4.7,2.699,9.3,4.6,13.7c1.9,4.399,4.201,8.399,7,11.899
		c2.801,3.5,6,6.5,9.701,8.8c3.699,2.301,8,3.7,12.699,4.101c3.5,0.399,7.201-0.101,10.9-1.4s7.5-3,11.199-5.2
		c3.5-2.199,7-4.6,10.301-7.399c3.299-2.8,6.6-5.601,9.699-8.601c3.5-3.5,6.9-7,10-10.3c3.102-3.3,5.801-6.399,7.9-9.2
		c1.201-1.199,2.301-1.8,3.4-1.8s2,0.4,2.799,1.2c0.801,0.8,1.201,1.8,1.301,2.9c0.1,1.199-0.301,2.399-1.301,3.5
		c-4.299,5.1-9.1,10.399-14.199,15.8c-5.201,5.399-10.6,10.399-16.301,14.899c-5.699,4.301-11.5,7.801-17.5,10.5
		c-6,2.7-12.1,3.801-18.398,3.4c-5.102-0.4-10.4-1.9-15.9-4.7c-5.5-2.7-9.801-6.3-13-10.6c-3-3.9-5.301-7.7-7-11.5
		c-1.701-3.7-3-7.3-4-10.6c-0.4-1.2-0.801-2.4-1.201-3.7c-0.398-1.3-0.799-2.601-1.199-4c-1.6,6.5-3.701,12.8-6.4,19
		s-6.4,11.7-11.1,16.399c-4.5,4.5-9.6,7.801-15.301,9.9c-5.699,2.1-11.5,2.9-17.398,2.6c-5.701-0.399-11.102-1.8-16.201-4.199
		c-5.1-2.4-9.6-5.9-13.6-10.4c-4.301-5.3-7.801-11.5-10.4-18.5c-2-5.1-3.4-10.3-4.199-15.6c-0.801-5.301-1.4-10.5-1.801-15.601
		c-2.699,3-5.4,6-8.1,9C5032.601,958.5,5029.9,961.6,5027.201,964.8z"/>
	<path fill="#FFFFFF" d="M5246.601,965.6c-2.201,1.601-4.102,1.601-5.701,0c-1.699-1.6-1.9-3.5-0.799-5.899
		c3.299-3.3,6.898-7.101,10.6-11.2c3.699-4.1,7.5-8.5,11.5-13c5.299-6.1,10.299-11.7,15-16.8c4.699-5.101,8.199-8.5,10.6-10
		c1.801-1.4,3.701-1.9,5.701-1.5c2.1,0.399,4.199,1.399,6.299,2.899c3.701,2.5,7.301,5.9,10.6,10c2.801,3.301,5.301,6.7,7.5,10.101
		c2.301,3.399,3.9,6,4.9,7.8c3,4.9,5.5,9.9,7.701,15c2.199,5.1,3.799,10.3,4.799,15.6c1.6,7.5,2.1,14.7,1.4,21.8
		c-0.701,7.101-2.9,13.7-6.6,19.801c-3.9,6.899-9.801,12.6-17.602,17.1c-6.299,3.4-12.799,5.2-19.699,5.7
		c-6.9,0.399-13.4-0.8-19.4-3.5c-3.299-1.601-6.4-3.5-9.299-5.9c-2.9-2.3-5.4-5.2-7.5-8.5c-0.801-1.399-1-2.6-0.701-3.8
		c0.301-1.2,0.9-2.1,1.801-2.7c0.898-0.6,1.898-0.8,3.1-0.6c1.199,0.2,2.299,0.899,3.199,2.1c2.4,3.101,5,5.7,7.801,7.601
		c2.799,2,5.799,3.399,9,4.399c7.5,2.5,15.1,2.4,23-0.399c6.5-2.2,12-6.2,16.5-12c4.5-5.801,6.9-12.801,7.299-21.101
		c0.201-9-1.1-18.1-3.898-27.1c-2.201-6.7-5-13.101-8.602-19.4c-3.6-6.3-7.299-11.6-11.398-15.899c-4-4.301-7.701-7.601-11.102-10
		c-2.5,2-4.799,3.899-6.6,5.899c-1.9,2-4,4.3-6.299,7.101c-5.301,6.1-10.602,12.3-16,18.5C5258.101,954,5252.5,959.9,5246.601,965.6
		z"/>
	<path fill="#FFFFFF" d="M5392.201,992.3c-1.4-0.399-2.301-1.1-2.801-2.1s-0.699-2-0.6-2.9c0.1-1,0.5-1.899,1.301-2.7
		c0.799-0.8,1.898-1.199,3.199-1.199c2.6,0.399,5.301,0.699,8.1,0.899c2.801,0.2,5.701,0.3,8.701,0.3
		c2.699-3.699,5.6-7.399,8.699-10.899c3-3.5,5.9-7.2,8.701-10.9c2.199-3,4.199-6,6-9.3c1.9-3.2,3.299-6.5,4.199-9.9
		c1.201-4.1,1.301-7.5,0.4-10.2c-0.9-2.6-2.4-4.6-4.6-5.699c-4.5-2.301-10.301-2.101-17.4,0.6c-4.5,1.8-8.5,4-12.1,6.7
		c-3.5,2.7-7,5.7-10.301,9c-3.5,3.3-7,6.899-10.6,10.8c-3.5,3.8-7.299,7.7-11.5,11.7c-2.199,1.6-4.1,1.6-5.699,0
		c-1.701-1.601-1.9-3.5-0.801-5.9c6.1-6.1,11.1-11.2,15-15.399c3.9-4.101,8.4-8.4,13.5-12.7c2.701-2.4,5.6-4.5,8.5-6.5
		s6.1-3.7,9.4-5.3c4.5-2.2,8.9-3.4,13.1-3.7c4.201-0.3,8,0.3,11.301,1.899c4.1,2,7.199,5.2,9.299,9.7s2.301,10.101,0.801,16.8
		c-1.9,7.5-5.301,14.301-10.102,20.601c-4.799,6.3-9.6,12.5-14.5,18.6c1.602,0,3.102-0.1,4.602-0.2c1.5-0.1,3-0.3,4.6-0.5
		c4.9-0.399,9.6-0.899,14.1-1.5c4.5-0.6,8.701-1.399,12.701-2.399c3.1-0.8,6.299-1.7,9.6-2.8c3.199-1.101,6.5-2.5,9.9-4.301
		c3.5-2,7.1-4.3,10.699-7.1s7.301-6.1,11-10c1.201-1,2.301-1.4,3.4-1.3c1.1,0.1,1.9,0.5,2.5,1.3s0.9,1.8,1,3.1
		c0.1,1.301-0.301,2.5-1.301,3.7c-7,7.5-15.1,13.4-24.1,17.7c-6.9,3.6-14,6.2-21.5,8c-4.5,1-9.5,1.9-15,2.7s-11.1,1.399-16.799,1.8
		c-2.201,0.2-4.201,0.4-6.201,0.5s-3.9,0.2-5.9,0.2c-0.6,0.6-1.1,1.3-1.5,2.1c-2.199,3.3-4.1,6.8-5.699,10.5
		c-1.701,3.601-2.5,7.4-2.5,11.3c0,1.801,0.5,3,1.299,3.801c0.9,0.8,1.801,1.399,2.801,1.8c1.799,0.6,3.799,0.7,6.199,0.3
		s4.602-0.9,6.801-1.5c6.1-2,12-4.6,17.6-7.7c5.701-3.2,11.1-6.399,16.201-9.8c1.398-0.6,2.6-0.7,3.799-0.3
		c1.201,0.399,2,1,2.5,1.899c0.5,0.9,0.6,1.9,0.5,3.101c-0.199,1.2-1,2.2-2.299,3c-3.5,2.399-7.301,4.6-11.201,6.8
		s-7.799,4.2-11.799,6.2c-2.201,1-4.4,2-6.801,3s-4.6,1.8-6.799,2.399c-5.701,1.601-10.801,2-15.5,1.4c-4.602-0.7-8-2.7-10.201-6
		c-2.799-3.9-3-9.8-0.6-17.7c0.799-2.8,1.699-5.3,2.799-7.7c1.102-2.399,2.301-4.6,3.701-6.8c-2.201-0.2-4.201-0.3-6.201-0.399
		C5396.101,993,5394.101,992.7,5392.201,992.3z"/>
</g>
<g>
	<path fill="#FFFFFF" d="M1489.601,693L1489,295.8h-171.5V254h389.2v41.8h-172.2l0.601,397.2H1489.601z"/>
	<path fill="#FFFFFF" d="M1695.601,693L1695,373.3h45.5v73.2h1.2c4.9-11.1,10.199-20.8,16-29.2c5.699-8.399,13.3-17,22.8-25.8
		c9.399-8.8,21.2-15.7,35.399-20.6c14.101-4.9,30.201-7.4,48.301-7.4c11.9,0,20.9,0.8,27.1,2.5v46.7c-14.4-2.5-28.3-3.7-41.8-3.7
		c-29.101,0-54.5,9.8-76.2,29.5c-21.699,19.7-32.6,50.2-32.6,91.6l0.6,162.9H1695.601z"/>
	<path fill="#FFFFFF" d="M1961.8,471.6H1920c3.7-35.699,17-62.6,40-80.899c23-18.2,60.5-27.4,112.5-27.4
		c52.101,0,89.5,7.9,112.2,23.7c22.8,15.8,34.1,39.5,34.1,71v167.2c0,13.1,1.9,22.3,5.801,27.7c3.899,5.3,10.3,8,19.399,8
		c5.3,0,13.3-0.4,24-1.2v30.7c-16.399,3.3-29.101,4.899-38.101,4.899c-11.1,0-20.1-1.6-27.1-4.899s-12-8.101-15.1-14.4
		c-3.101-6.4-5-12.2-5.801-17.5c-0.8-5.3-1.199-11.9-1.199-19.7h-1.2c-5.3,7.8-10.601,14.4-15.7,19.7s-13.2,11.9-24.3,19.7
		c-11.101,7.8-25.9,13.8-44.601,18.1c-18.699,4.3-40.3,6.5-64.9,6.5c-20.1,0-39-2.8-56.899-8.3c-17.8-5.5-33.5-15.9-47-31.1
		c-13.5-15.2-20.3-34-20.3-56.601c0-16.399,3.4-30.699,10.1-43c6.801-12.3,15.2-21.8,25.2-28.6s22.8-12.3,38.1-16.6
		c15.4-4.301,29.3-7.2,41.8-8.601c12.5-1.399,27.2-2.6,44-3.399c34.4-1.601,59.2-3.801,74.4-6.5c15.2-2.7,25.2-6.601,30.1-11.7
		c4.9-5.101,7.4-13.2,7.4-24.3c0-23-8.1-39.101-24.3-48.601c-16.2-9.399-43.3-14.1-81.5-14.1c-36.9,0-63.9,5.3-81.2,16
		C1972.899,428.2,1963.5,446.2,1961.8,471.6z M2177,569.4V520.8c-9,6.101-22.399,10.601-40.3,13.2
		c-17.801,2.7-51.801,6.3-101.801,10.8c-27.899,2.5-48.8,8.301-62.699,17.5c-13.9,9.2-20.9,23.101-20.9,41.5
		c0,43,30.7,64.601,92.2,64.601c34,0,64.8-8.8,92.2-26.4C2163.3,624.3,2177,600.1,2177,569.4z"/>
	<path fill="#FFFFFF" d="M2434.101,640.7L2559.5,373.2h49.2L2459.3,693h-49.199l-150-319.7h48.6L2434.101,640.7z"/>
	<path fill="#FFFFFF" d="M2929.601,590.9h45.5c-10.301,32.399-29.301,59.1-57.201,80.2c-27.9,21.1-66.199,31.699-115,31.699
		c-31.199,0-58.4-5.1-81.799-15.399c-23.4-10.2-41.5-23.8-54.4-40.601c-12.9-16.8-22.4-34.699-28.6-53.8c-6.101-19.1-9.2-39-9.2-60
		c0-48,14.899-88.2,44.6-120.8s72.9-48.9,129.4-48.9c22.5,0,43.701,2.801,63.301,8.301c19.699,5.5,38.6,14.699,56.9,27.399
		c18.199,12.7,32.799,31.5,43.699,56.3c10.9,24.801,16.301,54.4,16.301,88.801H2674.4c0,34.399,11.6,63.1,34.7,86.1
		c23.199,23,54.399,34.4,93.799,34.4c36.9,0,65.1-5.9,84.5-17.801C2907,635,2921,616.3,2929.601,590.9z M2674.5,509.7h263.201
		c-6.102-36.9-21.301-64.101-45.5-81.8c-24.201-17.601-52.9-26.4-86.102-26.4c-32.799,0-61.799,8.9-87,26.7S2679,473.3,2674.5,509.7
		z"/>
	<path fill="#FFFFFF" d="M3037.9,693l-0.6-442.7h45.5l0.6,442.7H3037.9z"/>
	<path fill="#FFFFFF" d="M3328.701,693l-0.602-439h249.602c41,0,71.6,10.1,91.898,30.4c20.301,20.3,30.4,47,30.4,80.2
		c0,22.5-6.4,42.4-19.1,59.601s-31.6,28.7-56.6,34.399v1.2c29.1,4.5,51.898,16.4,68.299,35.7s24.602,43.3,24.602,71.9
		c0,21.7-4.301,41-12.9,57.8s-20.1,29.9-34.4,39.4c-14.4,9.399-29.699,16.5-46.1,21.199c-16.4,4.7-33.4,7.101-51,7.101h-244.1V693z
		 M3373.601,295.8v148.8H3553.8c32.801,0,57.801-6,75-18.1c17.199-12.101,25.801-32.101,25.801-60c0-47.101-28.5-70.7-85.5-70.7
		H3373.601z M3373.601,486.4v164.8H3564.8c31.1,0,56.199-6.8,75-20.3c18.9-13.5,28.301-34.601,28.301-63.3
		c0-29.9-8.102-50.9-24.301-63C3627.601,492.5,3605,486.5,3575.9,486.5h-202.299V486.4z"/>
	<path fill="#FFFFFF" d="M3777.5,693l-0.6-442.7h45.5L3823,693H3777.5z"/>
	<path fill="#FFFFFF" d="M3927.3,653.9c-31.4-32.601-47-72.9-47-120.8c0-48,15.699-88.2,47-120.801
		c31.301-32.6,76.1-48.899,134.301-48.899c58.199,0,103,16.3,134.398,48.899c31.4,32.601,47,72.9,47,120.801
		c0,48-15.699,88.199-47,120.8c-31.299,32.6-76.1,48.899-134.398,48.899C4003.4,702.8,3958.601,686.5,3927.3,653.9z M3962,438.1
		c-24.199,24.4-36.299,56.101-36.299,95c0,38.9,12.1,70.601,36.299,95c24.201,24.4,57.4,36.601,99.602,36.601
		c42.199,0,75.398-12.2,99.6-36.601c24.199-24.399,36.299-56,36.299-95c0-38.899-12.1-70.6-36.299-95
		c-24.201-24.399-57.4-36.6-99.6-36.6C4019.4,401.5,3986.201,413.7,3962,438.1z"/>
	<path fill="#FFFFFF" d="M4597.8,435.3v-62.1h45.5V680.6c0,22.5-3.6,42.601-10.801,60.3c-7.199,17.601-16.5,31.9-28,42.7
		c-11.5,10.9-25.299,19.7-41.5,26.4c-16.199,6.8-32.299,11.5-48.299,14.1c-16,2.7-33,4-51,4c-27.5,0-51.6-2.6-72.201-7.7
		c-20.699-5.1-36.5-11.3-47.299-18.399c-10.9-7.2-19.801-16.101-26.701-26.7c-7-10.7-11.398-19.6-13.199-26.7
		c-1.801-7.2-3.201-15.3-4-24.3h41.799c2,11.1,4.5,19.8,7.4,26.1c2.9,6.4,8.301,13.301,16.301,20.9s20.299,13.2,36.898,16.9
		c16.602,3.699,37.602,5.5,63,5.5c42.602,0,75.301-9.801,98.102-29.5c22.799-19.7,34.1-48.601,34.1-86.7v-57.2h-1.201
		c-26.699,48.4-73.6,72.6-140.799,72.6c-21.301,0-41.6-3-60.9-8.899c-19.299-5.9-37.4-15.101-54.4-27.4s-30.398-29.6-40.299-52
		c-9.801-22.3-14.801-48.5-14.801-78.399c0-45.9,14.9-84.5,44.602-115.9c29.699-31.4,73.1-47,130-47c32,0,60.199,6.1,84.5,18.1
		c24.398,12.101,41.699,30,52,53.801h1.199V435.3z M4599,526.3c0-35.7-12-65.399-36-89.2c-24-23.8-57.5-35.7-100.5-35.7
		c-40.6,0-72.699,11-96.199,32.9c-23.6,21.9-35.4,52.6-35.4,91.9c0,44.3,12.301,76.8,36.9,97.5c24.6,20.699,57.4,31.1,98.4,31.1
		c38.898,0,70.799-11.5,95.6-34.4C4586.601,597.5,4599,566.1,4599,526.3z"/>
</g>
</svg>
